M48
; DRILL file {KiCad (5.1.9)-1} date 02/10/21 23:03:06
; FORMAT={-:-/ absolute / inch / decimal}
; #@! TF.CreationDate,2021-02-10T23:03:06-05:00
; #@! TF.GenerationSoftware,Kicad,Pcbnew,(5.1.9)-1
FMAT,2
INCH
T1C0.0315
T2C0.0335
T3C0.0354
T4C0.0748
T5C0.1220
T6C0.0866
%
G90
G05
T1
X1.0728Y-1.1516
X1.3573Y-1.0354
X2.085Y-0.9044
X2.1248Y-0.8209
X2.1555Y-1.0531
X2.1555Y-0.9547
X2.156Y-1.1548
X2.1631Y-2.3524
X2.1638Y-2.2468
X2.1647Y-1.8504
X2.1654Y-1.4567
X2.1654Y-1.3583
X2.1654Y-1.5551
X2.1654Y-1.6535
X2.1654Y-1.752
X2.1654Y-1.9488
X2.1654Y-2.0571
X2.1654Y-2.1555
X2.1654Y-1.25
X2.5787Y-1.6536
X2.5787Y-1.1516
X2.5787Y-1.25
X2.5787Y-1.3484
X2.5787Y-1.4567
X2.5787Y-1.5551
X2.5787Y-1.752
X2.5787Y-1.8504
X2.5787Y-1.9587
X2.5787Y-2.0571
X2.5787Y-2.1555
X2.5787Y-2.2539
X2.5787Y-2.3524
X2.5818Y-0.9547
X2.5857Y-1.0531
T2
X0.8988Y-1.1008
X0.8988Y-1.1508
X0.8988Y-1.2008
X0.8988Y-1.2508
X0.8988Y-1.3008
X0.9488Y-1.1008
X0.9488Y-1.1508
X0.9488Y-1.2008
X0.9488Y-1.2508
X0.9488Y-1.3008
T3
X2.4036Y-2.2036
X2.4036Y-2.3036
T4
X0.945Y-0.7875
X0.945Y-2.5198
X2.3623Y-0.7875
X2.3623Y-2.5198
T5
X0.7875Y-0.7875
X0.7875Y-2.5198
X2.5198Y-0.7875
X2.5198Y-2.5198
T6
X0.7874Y-2.3031
X1.9685Y-1.0039
T0
M30
