%TF.GenerationSoftware,KiCad,Pcbnew,(5.1.9)-1*%
%TF.CreationDate,2021-02-10T23:03:02-05:00*%
%TF.ProjectId,pmsa003-module,706d7361-3030-4332-9d6d-6f64756c652e,rev?*%
%TF.SameCoordinates,Original*%
%TF.FileFunction,Legend,Bot*%
%TF.FilePolarity,Positive*%
%FSLAX46Y46*%
G04 Gerber Fmt 4.6, Leading zero omitted, Abs format (unit mm)*
G04 Created by KiCad (PCBNEW (5.1.9)-1) date 2021-02-10 23:03:02*
%MOMM*%
%LPD*%
G01*
G04 APERTURE LIST*
%ADD10C,0.161101*%
%ADD11C,0.100000*%
%ADD12C,0.125301*%
%ADD13C,0.179001*%
%ADD14C,0.120000*%
%ADD15C,0.150000*%
%ADD16C,0.300000*%
G04 APERTURE END LIST*
D10*
X57181340Y-54857890D02*
X56678917Y-54857890D01*
X56949452Y-55164749D01*
X56833508Y-55164749D01*
X56756213Y-55203106D01*
X56717565Y-55241463D01*
X56678917Y-55318178D01*
X56678917Y-55509965D01*
X56717565Y-55586680D01*
X56756213Y-55625037D01*
X56833508Y-55663395D01*
X57065396Y-55663395D01*
X57142692Y-55625037D01*
X57181340Y-55586680D01*
X55983253Y-55126391D02*
X55983253Y-55663395D01*
X56176493Y-54819532D02*
X56369733Y-55394893D01*
X55867310Y-55394893D01*
X66281340Y-39597890D02*
X65778917Y-39597890D01*
X66049452Y-39904749D01*
X65933508Y-39904749D01*
X65856213Y-39943106D01*
X65817565Y-39981463D01*
X65778917Y-40058178D01*
X65778917Y-40249965D01*
X65817565Y-40326680D01*
X65856213Y-40365037D01*
X65933508Y-40403395D01*
X66165396Y-40403395D01*
X66242692Y-40365037D01*
X66281340Y-40326680D01*
X65778917Y-42943395D02*
X66242692Y-42943395D01*
X66010804Y-42943395D02*
X66010804Y-42137890D01*
X66088100Y-42252962D01*
X66165396Y-42329677D01*
X66242692Y-42368034D01*
X65083253Y-42137890D02*
X65237845Y-42137890D01*
X65315141Y-42176247D01*
X65353789Y-42214604D01*
X65431085Y-42329677D01*
X65469733Y-42483106D01*
X65469733Y-42789965D01*
X65431085Y-42866680D01*
X65392437Y-42905037D01*
X65315141Y-42943395D01*
X65160549Y-42943395D01*
X65083253Y-42905037D01*
X65044606Y-42866680D01*
X65005958Y-42789965D01*
X65005958Y-42598178D01*
X65044606Y-42521463D01*
X65083253Y-42483106D01*
X65160549Y-42444749D01*
X65315141Y-42444749D01*
X65392437Y-42483106D01*
X65431085Y-42521463D01*
X65469733Y-42598178D01*
X65778917Y-37863395D02*
X66242692Y-37863395D01*
X66010804Y-37863395D02*
X66010804Y-37057890D01*
X66088100Y-37172962D01*
X66165396Y-37249677D01*
X66242692Y-37288034D01*
X65315141Y-37403106D02*
X65392437Y-37364749D01*
X65431085Y-37326391D01*
X65469733Y-37249677D01*
X65469733Y-37211319D01*
X65431085Y-37134604D01*
X65392437Y-37096247D01*
X65315141Y-37057890D01*
X65160549Y-37057890D01*
X65083253Y-37096247D01*
X65044606Y-37134604D01*
X65005958Y-37211319D01*
X65005958Y-37249677D01*
X65044606Y-37326391D01*
X65083253Y-37364749D01*
X65160549Y-37403106D01*
X65315141Y-37403106D01*
X65392437Y-37441463D01*
X65431085Y-37479821D01*
X65469733Y-37556536D01*
X65469733Y-37709965D01*
X65431085Y-37786680D01*
X65392437Y-37825037D01*
X65315141Y-37863395D01*
X65160549Y-37863395D01*
X65083253Y-37825037D01*
X65044606Y-37786680D01*
X65005958Y-37709965D01*
X65005958Y-37556536D01*
X65044606Y-37479821D01*
X65083253Y-37441463D01*
X65160549Y-37403106D01*
X66242692Y-32054604D02*
X66204044Y-32016247D01*
X66126748Y-31977890D01*
X65933508Y-31977890D01*
X65856213Y-32016247D01*
X65817565Y-32054604D01*
X65778917Y-32131319D01*
X65778917Y-32208034D01*
X65817565Y-32323106D01*
X66281340Y-32783395D01*
X65778917Y-32783395D01*
X65508381Y-31977890D02*
X65005958Y-31977890D01*
X65276493Y-32284749D01*
X65160549Y-32284749D01*
X65083253Y-32323106D01*
X65044606Y-32361463D01*
X65005958Y-32438178D01*
X65005958Y-32629965D01*
X65044606Y-32706680D01*
X65083253Y-32745037D01*
X65160549Y-32783395D01*
X65392437Y-32783395D01*
X65469733Y-32745037D01*
X65508381Y-32706680D01*
X65778917Y-35323395D02*
X66242692Y-35323395D01*
X66010804Y-35323395D02*
X66010804Y-34517890D01*
X66088100Y-34632962D01*
X66165396Y-34709677D01*
X66242692Y-34748034D01*
X65392437Y-35323395D02*
X65237845Y-35323395D01*
X65160549Y-35285037D01*
X65121901Y-35246680D01*
X65044606Y-35131608D01*
X65005958Y-34978178D01*
X65005958Y-34671319D01*
X65044606Y-34594604D01*
X65083253Y-34556247D01*
X65160549Y-34517890D01*
X65315141Y-34517890D01*
X65392437Y-34556247D01*
X65431085Y-34594604D01*
X65469733Y-34671319D01*
X65469733Y-34863106D01*
X65431085Y-34939821D01*
X65392437Y-34978178D01*
X65315141Y-35016536D01*
X65160549Y-35016536D01*
X65083253Y-34978178D01*
X65044606Y-34939821D01*
X65005958Y-34863106D01*
D11*
G36*
X66202000Y-33487000D02*
G01*
X65002000Y-33487000D01*
X65002000Y-32887000D01*
X66202000Y-32887000D01*
X66202000Y-33487000D01*
G37*
G36*
X66202000Y-36027000D02*
G01*
X65002000Y-36027000D01*
X65002000Y-35427000D01*
X66202000Y-35427000D01*
X66202000Y-36027000D01*
G37*
D10*
X65778917Y-50563395D02*
X66242692Y-50563395D01*
X66010804Y-50563395D02*
X66010804Y-49757890D01*
X66088100Y-49872962D01*
X66165396Y-49949677D01*
X66242692Y-49988034D01*
X65469733Y-49834604D02*
X65431085Y-49796247D01*
X65353789Y-49757890D01*
X65160549Y-49757890D01*
X65083253Y-49796247D01*
X65044606Y-49834604D01*
X65005958Y-49911319D01*
X65005958Y-49988034D01*
X65044606Y-50103106D01*
X65508381Y-50563395D01*
X65005958Y-50563395D01*
X66242692Y-44754604D02*
X66204044Y-44716247D01*
X66126748Y-44677890D01*
X65933508Y-44677890D01*
X65856213Y-44716247D01*
X65817565Y-44754604D01*
X65778917Y-44831319D01*
X65778917Y-44908034D01*
X65817565Y-45023106D01*
X66281340Y-45483395D01*
X65778917Y-45483395D01*
X65005958Y-45483395D02*
X65469733Y-45483395D01*
X65237845Y-45483395D02*
X65237845Y-44677890D01*
X65315141Y-44792962D01*
X65392437Y-44869677D01*
X65469733Y-44908034D01*
X66242692Y-47294604D02*
X66204044Y-47256247D01*
X66126748Y-47217890D01*
X65933508Y-47217890D01*
X65856213Y-47256247D01*
X65817565Y-47294604D01*
X65778917Y-47371319D01*
X65778917Y-47448034D01*
X65817565Y-47563106D01*
X66281340Y-48023395D01*
X65778917Y-48023395D01*
X65778917Y-53103395D02*
X66242692Y-53103395D01*
X66010804Y-53103395D02*
X66010804Y-52297890D01*
X66088100Y-52412962D01*
X66165396Y-52489677D01*
X66242692Y-52528034D01*
X65044606Y-52297890D02*
X65431085Y-52297890D01*
X65469733Y-52681463D01*
X65431085Y-52643106D01*
X65353789Y-52604749D01*
X65160549Y-52604749D01*
X65083253Y-52643106D01*
X65044606Y-52681463D01*
X65005958Y-52758178D01*
X65005958Y-52949965D01*
X65044606Y-53026680D01*
X65083253Y-53065037D01*
X65160549Y-53103395D01*
X65353789Y-53103395D01*
X65431085Y-53065037D01*
X65469733Y-53026680D01*
D11*
G36*
X66202000Y-51267000D02*
G01*
X65002000Y-51267000D01*
X65002000Y-50667000D01*
X66202000Y-50667000D01*
X66202000Y-51267000D01*
G37*
D12*
X61870256Y-42385914D02*
X61870256Y-42893084D01*
X61840197Y-42952751D01*
X61810137Y-42982584D01*
X61750018Y-43012418D01*
X61629780Y-43012418D01*
X61569661Y-42982584D01*
X61539601Y-42952751D01*
X61509542Y-42893084D01*
X61509542Y-42385914D01*
X61239006Y-42445581D02*
X61208947Y-42415748D01*
X61148828Y-42385914D01*
X60998530Y-42385914D01*
X60938411Y-42415748D01*
X60908351Y-42445581D01*
X60878292Y-42505248D01*
X60878292Y-42564915D01*
X60908351Y-42654416D01*
X61269066Y-43012418D01*
X60878292Y-43012418D01*
D13*
X54350832Y-27488880D02*
X54350832Y-27059458D01*
X54095116Y-27574764D02*
X54990122Y-27274169D01*
X54095116Y-26973574D01*
X54095116Y-26672978D02*
X54990122Y-26672978D01*
X54990122Y-26458268D01*
X54947503Y-26329441D01*
X54862264Y-26243557D01*
X54777025Y-26200614D01*
X54606548Y-26157672D01*
X54478690Y-26157672D01*
X54308213Y-26200614D01*
X54222974Y-26243557D01*
X54137735Y-26329441D01*
X54095116Y-26458268D01*
X54095116Y-26672978D01*
X54180355Y-25255886D02*
X54137735Y-25298828D01*
X54095116Y-25427655D01*
X54095116Y-25513539D01*
X54137735Y-25642366D01*
X54222974Y-25728250D01*
X54308213Y-25771192D01*
X54478690Y-25814135D01*
X54606548Y-25814135D01*
X54777025Y-25771192D01*
X54862264Y-25728250D01*
X54947503Y-25642366D01*
X54990122Y-25513539D01*
X54990122Y-25427655D01*
X54947503Y-25298828D01*
X54904883Y-25255886D01*
X54095116Y-35095938D02*
X54990122Y-35095938D01*
X54990122Y-34881227D01*
X54947503Y-34752400D01*
X54862264Y-34666516D01*
X54777025Y-34623574D01*
X54606548Y-34580632D01*
X54478690Y-34580632D01*
X54308213Y-34623574D01*
X54222974Y-34666516D01*
X54137735Y-34752400D01*
X54095116Y-34881227D01*
X54095116Y-35095938D01*
X54350832Y-34237094D02*
X54350832Y-33807672D01*
X54095116Y-34322978D02*
X54990122Y-34022383D01*
X54095116Y-33721788D01*
X54180355Y-32905886D02*
X54137735Y-32948828D01*
X54095116Y-33077655D01*
X54095116Y-33163539D01*
X54137735Y-33292366D01*
X54222974Y-33378250D01*
X54308213Y-33421192D01*
X54478690Y-33464135D01*
X54606548Y-33464135D01*
X54777025Y-33421192D01*
X54862264Y-33378250D01*
X54947503Y-33292366D01*
X54990122Y-33163539D01*
X54990122Y-33077655D01*
X54947503Y-32948828D01*
X54904883Y-32905886D01*
D10*
X60290604Y-53254044D02*
X61096109Y-53254044D01*
X61019395Y-52906213D02*
X61057752Y-52867565D01*
X61096109Y-52790269D01*
X61096109Y-52597029D01*
X61057752Y-52519733D01*
X61019395Y-52481085D01*
X60942680Y-52442437D01*
X60865965Y-52442437D01*
X60750893Y-52481085D01*
X60290604Y-52944860D01*
X60290604Y-52442437D01*
X60328962Y-52133253D02*
X60290604Y-52017310D01*
X60290604Y-51824070D01*
X60328962Y-51746774D01*
X60367319Y-51708126D01*
X60444034Y-51669478D01*
X60520749Y-51669478D01*
X60597463Y-51708126D01*
X60635821Y-51746774D01*
X60674178Y-51824070D01*
X60712536Y-51978662D01*
X60750893Y-52055958D01*
X60789250Y-52094606D01*
X60865965Y-52133253D01*
X60942680Y-52133253D01*
X61019395Y-52094606D01*
X61057752Y-52055958D01*
X61096109Y-51978662D01*
X61096109Y-51785422D01*
X61057752Y-51669478D01*
X61378917Y-47316247D02*
X61456213Y-47277890D01*
X61572156Y-47277890D01*
X61688100Y-47316247D01*
X61765396Y-47392962D01*
X61804044Y-47469677D01*
X61842692Y-47623106D01*
X61842692Y-47738178D01*
X61804044Y-47891608D01*
X61765396Y-47968322D01*
X61688100Y-48045037D01*
X61572156Y-48083395D01*
X61494860Y-48083395D01*
X61378917Y-48045037D01*
X61340269Y-48006680D01*
X61340269Y-47738178D01*
X61494860Y-47738178D01*
X60992437Y-48083395D02*
X60992437Y-47277890D01*
X60683253Y-47277890D01*
X60605958Y-47316247D01*
X60567310Y-47354604D01*
X60528662Y-47431319D01*
X60528662Y-47546391D01*
X60567310Y-47623106D01*
X60605958Y-47661463D01*
X60683253Y-47699821D01*
X60992437Y-47699821D01*
D12*
X61870256Y-39845914D02*
X61870256Y-40353084D01*
X61840197Y-40412751D01*
X61810137Y-40442584D01*
X61750018Y-40472418D01*
X61629780Y-40472418D01*
X61569661Y-40442584D01*
X61539601Y-40412751D01*
X61509542Y-40353084D01*
X61509542Y-39845914D01*
X61088709Y-39845914D02*
X61028590Y-39845914D01*
X60968471Y-39875748D01*
X60938411Y-39905581D01*
X60908351Y-39965248D01*
X60878292Y-40084582D01*
X60878292Y-40233750D01*
X60908351Y-40353084D01*
X60938411Y-40412751D01*
X60968471Y-40442584D01*
X61028590Y-40472418D01*
X61088709Y-40472418D01*
X61148828Y-40442584D01*
X61178887Y-40412751D01*
X61208947Y-40353084D01*
X61239006Y-40233750D01*
X61239006Y-40084582D01*
X61208947Y-39965248D01*
X61178887Y-39905581D01*
X61148828Y-39875748D01*
X61088709Y-39845914D01*
D10*
X57181340Y-24377890D02*
X56678917Y-24377890D01*
X56949452Y-24684749D01*
X56833508Y-24684749D01*
X56756213Y-24723106D01*
X56717565Y-24761463D01*
X56678917Y-24838178D01*
X56678917Y-25029965D01*
X56717565Y-25106680D01*
X56756213Y-25145037D01*
X56833508Y-25183395D01*
X57065396Y-25183395D01*
X57142692Y-25145037D01*
X57181340Y-25106680D01*
X55944606Y-24377890D02*
X56331085Y-24377890D01*
X56369733Y-24761463D01*
X56331085Y-24723106D01*
X56253789Y-24684749D01*
X56060549Y-24684749D01*
X55983253Y-24723106D01*
X55944606Y-24761463D01*
X55905958Y-24838178D01*
X55905958Y-25029965D01*
X55944606Y-25106680D01*
X55983253Y-25145037D01*
X56060549Y-25183395D01*
X56253789Y-25183395D01*
X56331085Y-25145037D01*
X56369733Y-25106680D01*
X57181340Y-26917890D02*
X56678917Y-26917890D01*
X56949452Y-27224749D01*
X56833508Y-27224749D01*
X56756213Y-27263106D01*
X56717565Y-27301463D01*
X56678917Y-27378178D01*
X56678917Y-27569965D01*
X56717565Y-27646680D01*
X56756213Y-27685037D01*
X56833508Y-27723395D01*
X57065396Y-27723395D01*
X57142692Y-27685037D01*
X57181340Y-27646680D01*
X55983253Y-26917890D02*
X56137845Y-26917890D01*
X56215141Y-26956247D01*
X56253789Y-26994604D01*
X56331085Y-27109677D01*
X56369733Y-27263106D01*
X56369733Y-27569965D01*
X56331085Y-27646680D01*
X56292437Y-27685037D01*
X56215141Y-27723395D01*
X56060549Y-27723395D01*
X55983253Y-27685037D01*
X55944606Y-27646680D01*
X55905958Y-27569965D01*
X55905958Y-27378178D01*
X55944606Y-27301463D01*
X55983253Y-27263106D01*
X56060549Y-27224749D01*
X56215141Y-27224749D01*
X56292437Y-27263106D01*
X56331085Y-27301463D01*
X56369733Y-27378178D01*
X57104044Y-29841463D02*
X56833508Y-29841463D01*
X56717565Y-30263395D02*
X57104044Y-30263395D01*
X57104044Y-29457890D01*
X56717565Y-29457890D01*
X56369733Y-30263395D02*
X56369733Y-29457890D01*
X55905958Y-30263395D01*
X55905958Y-29457890D01*
X57142692Y-32074604D02*
X57104044Y-32036247D01*
X57026748Y-31997890D01*
X56833508Y-31997890D01*
X56756213Y-32036247D01*
X56717565Y-32074604D01*
X56678917Y-32151319D01*
X56678917Y-32228034D01*
X56717565Y-32343106D01*
X57181340Y-32803395D01*
X56678917Y-32803395D01*
X55944606Y-31997890D02*
X56331085Y-31997890D01*
X56369733Y-32381463D01*
X56331085Y-32343106D01*
X56253789Y-32304749D01*
X56060549Y-32304749D01*
X55983253Y-32343106D01*
X55944606Y-32381463D01*
X55905958Y-32458178D01*
X55905958Y-32649965D01*
X55944606Y-32726680D01*
X55983253Y-32765037D01*
X56060549Y-32803395D01*
X56253789Y-32803395D01*
X56331085Y-32765037D01*
X56369733Y-32726680D01*
D13*
X65797503Y-29398574D02*
X65840122Y-29484458D01*
X65840122Y-29613285D01*
X65797503Y-29742111D01*
X65712264Y-29827996D01*
X65627025Y-29870938D01*
X65456548Y-29913880D01*
X65328690Y-29913880D01*
X65158213Y-29870938D01*
X65072974Y-29827996D01*
X64987735Y-29742111D01*
X64945116Y-29613285D01*
X64945116Y-29527400D01*
X64987735Y-29398574D01*
X65030355Y-29355632D01*
X65328690Y-29355632D01*
X65328690Y-29527400D01*
X64945116Y-28969152D02*
X65840122Y-28969152D01*
X64945116Y-28453846D01*
X65840122Y-28453846D01*
X64945116Y-28024424D02*
X65840122Y-28024424D01*
X65840122Y-27809713D01*
X65797503Y-27680886D01*
X65712264Y-27595002D01*
X65627025Y-27552060D01*
X65456548Y-27509117D01*
X65328690Y-27509117D01*
X65158213Y-27552060D01*
X65072974Y-27595002D01*
X64987735Y-27680886D01*
X64945116Y-27809713D01*
X64945116Y-28024424D01*
X64945116Y-60270938D02*
X65840122Y-60270938D01*
X65413929Y-60270938D02*
X65413929Y-59755632D01*
X64945116Y-59755632D02*
X65840122Y-59755632D01*
X64945116Y-59326210D02*
X65840122Y-59326210D01*
X65840122Y-58982672D01*
X65797503Y-58896788D01*
X65754883Y-58853846D01*
X65669645Y-58810903D01*
X65541787Y-58810903D01*
X65456548Y-58853846D01*
X65413929Y-58896788D01*
X65371309Y-58982672D01*
X65371309Y-59326210D01*
X65840122Y-58510308D02*
X64945116Y-58295597D01*
X65584406Y-58123828D01*
X64945116Y-57952060D01*
X65840122Y-57737349D01*
X64945116Y-56878505D02*
X65371309Y-57179100D01*
X64945116Y-57393811D02*
X65840122Y-57393811D01*
X65840122Y-57050274D01*
X65797503Y-56964389D01*
X65754883Y-56921447D01*
X65669645Y-56878505D01*
X65541787Y-56878505D01*
X65456548Y-56921447D01*
X65413929Y-56964389D01*
X65371309Y-57050274D01*
X65371309Y-57393811D01*
D10*
X56949452Y-52317890D02*
X56872156Y-52317890D01*
X56794860Y-52356247D01*
X56756213Y-52394604D01*
X56717565Y-52471319D01*
X56678917Y-52624749D01*
X56678917Y-52816536D01*
X56717565Y-52969965D01*
X56756213Y-53046680D01*
X56794860Y-53085037D01*
X56872156Y-53123395D01*
X56949452Y-53123395D01*
X57026748Y-53085037D01*
X57065396Y-53046680D01*
X57104044Y-52969965D01*
X57142692Y-52816536D01*
X57142692Y-52624749D01*
X57104044Y-52471319D01*
X57065396Y-52394604D01*
X57026748Y-52356247D01*
X56949452Y-52317890D01*
X56678917Y-50583395D02*
X57142692Y-50583395D01*
X56910804Y-50583395D02*
X56910804Y-49777890D01*
X56988100Y-49892962D01*
X57065396Y-49969677D01*
X57142692Y-50008034D01*
X56408381Y-49777890D02*
X55905958Y-49777890D01*
X56176493Y-50084749D01*
X56060549Y-50084749D01*
X55983253Y-50123106D01*
X55944606Y-50161463D01*
X55905958Y-50238178D01*
X55905958Y-50429965D01*
X55944606Y-50506680D01*
X55983253Y-50545037D01*
X56060549Y-50583395D01*
X56292437Y-50583395D01*
X56369733Y-50545037D01*
X56408381Y-50506680D01*
X56767565Y-47157890D02*
X57154044Y-47157890D01*
X57192692Y-47541463D01*
X57154044Y-47503106D01*
X57076748Y-47464749D01*
X56883508Y-47464749D01*
X56806213Y-47503106D01*
X56767565Y-47541463D01*
X56728917Y-47618178D01*
X56728917Y-47809965D01*
X56767565Y-47886680D01*
X56806213Y-47925037D01*
X56883508Y-47963395D01*
X57076748Y-47963395D01*
X57154044Y-47925037D01*
X57192692Y-47886680D01*
X57142692Y-44774604D02*
X57104044Y-44736247D01*
X57026748Y-44697890D01*
X56833508Y-44697890D01*
X56756213Y-44736247D01*
X56717565Y-44774604D01*
X56678917Y-44851319D01*
X56678917Y-44928034D01*
X56717565Y-45043106D01*
X57181340Y-45503395D01*
X56678917Y-45503395D01*
X56369733Y-44774604D02*
X56331085Y-44736247D01*
X56253789Y-44697890D01*
X56060549Y-44697890D01*
X55983253Y-44736247D01*
X55944606Y-44774604D01*
X55905958Y-44851319D01*
X55905958Y-44928034D01*
X55944606Y-45043106D01*
X56408381Y-45503395D01*
X55905958Y-45503395D01*
X54978407Y-44659532D02*
X55674070Y-45695182D01*
X54707871Y-45503395D02*
X54707871Y-44697890D01*
X54244096Y-45503395D02*
X54591927Y-45043106D01*
X54244096Y-44697890D02*
X54707871Y-45158178D01*
X56678917Y-42963395D02*
X57142692Y-42963395D01*
X56910804Y-42963395D02*
X56910804Y-42157890D01*
X56988100Y-42272962D01*
X57065396Y-42349677D01*
X57142692Y-42388034D01*
X56408381Y-42157890D02*
X55867310Y-42157890D01*
X56215141Y-42963395D01*
X54978407Y-42119532D02*
X55674070Y-43155182D01*
X54823815Y-42157890D02*
X54360039Y-42157890D01*
X54591927Y-42963395D02*
X54591927Y-42157890D01*
X56678917Y-40423395D02*
X57142692Y-40423395D01*
X56910804Y-40423395D02*
X56910804Y-39617890D01*
X56988100Y-39732962D01*
X57065396Y-39809677D01*
X57142692Y-39848034D01*
X55751366Y-39579532D02*
X56447029Y-40615182D01*
X55596774Y-39617890D02*
X55132999Y-39617890D01*
X55364886Y-40423395D02*
X55364886Y-39617890D01*
X57181340Y-37077890D02*
X56678917Y-37077890D01*
X56949452Y-37384749D01*
X56833508Y-37384749D01*
X56756213Y-37423106D01*
X56717565Y-37461463D01*
X56678917Y-37538178D01*
X56678917Y-37729965D01*
X56717565Y-37806680D01*
X56756213Y-37845037D01*
X56833508Y-37883395D01*
X57065396Y-37883395D01*
X57142692Y-37845037D01*
X57181340Y-37806680D01*
X56447029Y-37077890D02*
X56176493Y-37883395D01*
X55905958Y-37077890D01*
X55712718Y-37077890D02*
X55210294Y-37077890D01*
X55480830Y-37384749D01*
X55364886Y-37384749D01*
X55287590Y-37423106D01*
X55248942Y-37461463D01*
X55210294Y-37538178D01*
X55210294Y-37729965D01*
X55248942Y-37806680D01*
X55287590Y-37845037D01*
X55364886Y-37883395D01*
X55596774Y-37883395D01*
X55674070Y-37845037D01*
X55712718Y-37806680D01*
X57142692Y-34614604D02*
X57104044Y-34576247D01*
X57026748Y-34537890D01*
X56833508Y-34537890D01*
X56756213Y-34576247D01*
X56717565Y-34614604D01*
X56678917Y-34691319D01*
X56678917Y-34768034D01*
X56717565Y-34883106D01*
X57181340Y-35343395D01*
X56678917Y-35343395D01*
X55983253Y-34537890D02*
X56137845Y-34537890D01*
X56215141Y-34576247D01*
X56253789Y-34614604D01*
X56331085Y-34729677D01*
X56369733Y-34883106D01*
X56369733Y-35189965D01*
X56331085Y-35266680D01*
X56292437Y-35305037D01*
X56215141Y-35343395D01*
X56060549Y-35343395D01*
X55983253Y-35305037D01*
X55944606Y-35266680D01*
X55905958Y-35189965D01*
X55905958Y-34998178D01*
X55944606Y-34921463D01*
X55983253Y-34883106D01*
X56060549Y-34844749D01*
X56215141Y-34844749D01*
X56292437Y-34883106D01*
X56331085Y-34921463D01*
X56369733Y-34998178D01*
X56717565Y-57397890D02*
X57104044Y-57397890D01*
X57142692Y-57781463D01*
X57104044Y-57743106D01*
X57026748Y-57704749D01*
X56833508Y-57704749D01*
X56756213Y-57743106D01*
X56717565Y-57781463D01*
X56678917Y-57858178D01*
X56678917Y-58049965D01*
X56717565Y-58126680D01*
X56756213Y-58165037D01*
X56833508Y-58203395D01*
X57026748Y-58203395D01*
X57104044Y-58165037D01*
X57142692Y-58126680D01*
X56447029Y-57397890D02*
X56176493Y-58203395D01*
X55905958Y-57397890D01*
X56833508Y-60321463D02*
X56717565Y-60359821D01*
X56678917Y-60398178D01*
X56640269Y-60474893D01*
X56640269Y-60589965D01*
X56678917Y-60666680D01*
X56717565Y-60705037D01*
X56794860Y-60743395D01*
X57104044Y-60743395D01*
X57104044Y-59937890D01*
X56833508Y-59937890D01*
X56756213Y-59976247D01*
X56717565Y-60014604D01*
X56678917Y-60091319D01*
X56678917Y-60168034D01*
X56717565Y-60244749D01*
X56756213Y-60283106D01*
X56833508Y-60321463D01*
X57104044Y-60321463D01*
X56331085Y-60513250D02*
X55944606Y-60513250D01*
X56408381Y-60743395D02*
X56137845Y-59937890D01*
X55867310Y-60743395D01*
X55712718Y-59937890D02*
X55248942Y-59937890D01*
X55480830Y-60743395D02*
X55480830Y-59937890D01*
X60290604Y-45654044D02*
X61096109Y-45654044D01*
X61019395Y-45306213D02*
X61057752Y-45267565D01*
X61096109Y-45190269D01*
X61096109Y-44997029D01*
X61057752Y-44919733D01*
X61019395Y-44881085D01*
X60942680Y-44842437D01*
X60865965Y-44842437D01*
X60750893Y-44881085D01*
X60290604Y-45344860D01*
X60290604Y-44842437D01*
X60367319Y-44030830D02*
X60328962Y-44069478D01*
X60290604Y-44185422D01*
X60290604Y-44262718D01*
X60328962Y-44378662D01*
X60405677Y-44455958D01*
X60482391Y-44494606D01*
X60635821Y-44533253D01*
X60750893Y-44533253D01*
X60904322Y-44494606D01*
X60981037Y-44455958D01*
X61057752Y-44378662D01*
X61096109Y-44262718D01*
X61096109Y-44185422D01*
X61057752Y-44069478D01*
X61019395Y-44030830D01*
X60615604Y-32964044D02*
X61421109Y-32964044D01*
X60845749Y-32693508D01*
X61421109Y-32422973D01*
X60615604Y-32422973D01*
X61421109Y-31881901D02*
X61421109Y-31727310D01*
X61382752Y-31650014D01*
X61306037Y-31572718D01*
X61152608Y-31534070D01*
X60884106Y-31534070D01*
X60730677Y-31572718D01*
X60653962Y-31650014D01*
X60615604Y-31727310D01*
X60615604Y-31881901D01*
X60653962Y-31959197D01*
X60730677Y-32036493D01*
X60884106Y-32075141D01*
X61152608Y-32075141D01*
X61306037Y-32036493D01*
X61382752Y-31959197D01*
X61421109Y-31881901D01*
X60615604Y-35464044D02*
X61421109Y-35464044D01*
X60845749Y-35193508D01*
X61421109Y-34922973D01*
X60615604Y-34922973D01*
X60615604Y-34536493D02*
X61421109Y-34536493D01*
X60653962Y-38142692D02*
X60615604Y-38026748D01*
X60615604Y-37833508D01*
X60653962Y-37756213D01*
X60692319Y-37717565D01*
X60769034Y-37678917D01*
X60845749Y-37678917D01*
X60922463Y-37717565D01*
X60960821Y-37756213D01*
X60999178Y-37833508D01*
X61037536Y-37988100D01*
X61075893Y-38065396D01*
X61114250Y-38104044D01*
X61190965Y-38142692D01*
X61267680Y-38142692D01*
X61344395Y-38104044D01*
X61382752Y-38065396D01*
X61421109Y-37988100D01*
X61421109Y-37794860D01*
X61382752Y-37678917D01*
X60692319Y-36867310D02*
X60653962Y-36905958D01*
X60615604Y-37021901D01*
X60615604Y-37099197D01*
X60653962Y-37215141D01*
X60730677Y-37292437D01*
X60807391Y-37331085D01*
X60960821Y-37369733D01*
X61075893Y-37369733D01*
X61229322Y-37331085D01*
X61306037Y-37292437D01*
X61382752Y-37215141D01*
X61421109Y-37099197D01*
X61421109Y-37021901D01*
X61382752Y-36905958D01*
X61344395Y-36867310D01*
X60615604Y-36519478D02*
X61421109Y-36519478D01*
X60615604Y-36055703D02*
X61075893Y-36403534D01*
X61421109Y-36055703D02*
X60960821Y-36519478D01*
D11*
G36*
X57302000Y-53827000D02*
G01*
X56102000Y-53827000D01*
X56102000Y-53227000D01*
X57302000Y-53227000D01*
X57302000Y-53827000D01*
G37*
G36*
X57302000Y-51267000D02*
G01*
X56102000Y-51267000D01*
X56102000Y-50667000D01*
X57302000Y-50667000D01*
X57302000Y-51267000D01*
G37*
G36*
X61127000Y-55752000D02*
G01*
X60202000Y-55752000D01*
X60202000Y-52652000D01*
X61127000Y-52652000D01*
X61127000Y-55752000D01*
G37*
D14*
%TO.C,J2*%
X21880000Y-27200000D02*
X21880000Y-27960000D01*
X25050000Y-33735000D02*
X24407530Y-33735000D01*
X23792470Y-33735000D02*
X23137530Y-33735000D01*
X22522470Y-33735000D02*
X21880000Y-33735000D01*
X22070000Y-28595000D02*
X21880000Y-28595000D01*
X21880000Y-28595000D02*
X21880000Y-33735000D01*
X25050000Y-27265000D02*
X25050000Y-33735000D01*
X23792470Y-27265000D02*
X23590000Y-27265000D01*
X22830000Y-27200000D02*
X21880000Y-27200000D01*
X25050000Y-27265000D02*
X24407530Y-27265000D01*
D15*
X17500000Y-23500000D02*
X17500000Y-60500000D01*
X18000000Y-61000000D02*
X52000000Y-61000000D01*
X52500000Y-60500000D02*
X52500000Y-23500000D01*
X52000000Y-23000000D02*
X18000000Y-23000000D01*
X52500000Y-23500000D02*
G75*
G03*
X52000000Y-23000000I-500000J0D01*
G01*
X18000000Y-23000000D02*
G75*
G03*
X17500000Y-23500000I0J-500000D01*
G01*
X17500000Y-60500000D02*
G75*
G03*
X18000000Y-61000000I500000J0D01*
G01*
X52000000Y-61000000D02*
G75*
G03*
X52500000Y-60500000I0J500000D01*
G01*
X53052380Y-24866666D02*
X53766666Y-24866666D01*
X53909523Y-24819047D01*
X54004761Y-24723809D01*
X54052380Y-24580952D01*
X54052380Y-24485714D01*
X53147619Y-25295238D02*
X53100000Y-25342857D01*
X53052380Y-25438095D01*
X53052380Y-25676190D01*
X53100000Y-25771428D01*
X53147619Y-25819047D01*
X53242857Y-25866666D01*
X53338095Y-25866666D01*
X53480952Y-25819047D01*
X54052380Y-25247619D01*
X54052380Y-25866666D01*
D16*
X41333333Y-42904761D02*
X41333333Y-40904761D01*
X40571428Y-40904761D01*
X40380952Y-41000000D01*
X40285714Y-41095238D01*
X40190476Y-41285714D01*
X40190476Y-41571428D01*
X40285714Y-41761904D01*
X40380952Y-41857142D01*
X40571428Y-41952380D01*
X41333333Y-41952380D01*
X39333333Y-42904761D02*
X39333333Y-40904761D01*
X38666666Y-42333333D01*
X38000000Y-40904761D01*
X38000000Y-42904761D01*
X37142857Y-42809523D02*
X36857142Y-42904761D01*
X36380952Y-42904761D01*
X36190476Y-42809523D01*
X36095238Y-42714285D01*
X36000000Y-42523809D01*
X36000000Y-42333333D01*
X36095238Y-42142857D01*
X36190476Y-42047619D01*
X36380952Y-41952380D01*
X36761904Y-41857142D01*
X36952380Y-41761904D01*
X37047619Y-41666666D01*
X37142857Y-41476190D01*
X37142857Y-41285714D01*
X37047619Y-41095238D01*
X36952380Y-41000000D01*
X36761904Y-40904761D01*
X36285714Y-40904761D01*
X36000000Y-41000000D01*
X35238095Y-42333333D02*
X34285714Y-42333333D01*
X35428571Y-42904761D02*
X34761904Y-40904761D01*
X34095238Y-42904761D01*
X33047619Y-40904761D02*
X32857142Y-40904761D01*
X32666666Y-41000000D01*
X32571428Y-41095238D01*
X32476190Y-41285714D01*
X32380952Y-41666666D01*
X32380952Y-42142857D01*
X32476190Y-42523809D01*
X32571428Y-42714285D01*
X32666666Y-42809523D01*
X32857142Y-42904761D01*
X33047619Y-42904761D01*
X33238095Y-42809523D01*
X33333333Y-42714285D01*
X33428571Y-42523809D01*
X33523809Y-42142857D01*
X33523809Y-41666666D01*
X33428571Y-41285714D01*
X33333333Y-41095238D01*
X33238095Y-41000000D01*
X33047619Y-40904761D01*
X31142857Y-40904761D02*
X30952380Y-40904761D01*
X30761904Y-41000000D01*
X30666666Y-41095238D01*
X30571428Y-41285714D01*
X30476190Y-41666666D01*
X30476190Y-42142857D01*
X30571428Y-42523809D01*
X30666666Y-42714285D01*
X30761904Y-42809523D01*
X30952380Y-42904761D01*
X31142857Y-42904761D01*
X31333333Y-42809523D01*
X31428571Y-42714285D01*
X31523809Y-42523809D01*
X31619047Y-42142857D01*
X31619047Y-41666666D01*
X31523809Y-41285714D01*
X31428571Y-41095238D01*
X31333333Y-41000000D01*
X31142857Y-40904761D01*
X29809523Y-40904761D02*
X28571428Y-40904761D01*
X29238095Y-41666666D01*
X28952380Y-41666666D01*
X28761904Y-41761904D01*
X28666666Y-41857142D01*
X28571428Y-42047619D01*
X28571428Y-42523809D01*
X28666666Y-42714285D01*
X28761904Y-42809523D01*
X28952380Y-42904761D01*
X29523809Y-42904761D01*
X29714285Y-42809523D01*
X29809523Y-42714285D01*
%TD*%
M02*
