%TF.GenerationSoftware,KiCad,Pcbnew,(5.1.9)-1*%
%TF.CreationDate,2021-02-10T23:03:02-05:00*%
%TF.ProjectId,pmsa003-module,706d7361-3030-4332-9d6d-6f64756c652e,rev?*%
%TF.SameCoordinates,Original*%
%TF.FileFunction,Copper,L1,Top*%
%TF.FilePolarity,Positive*%
%FSLAX46Y46*%
G04 Gerber Fmt 4.6, Leading zero omitted, Abs format (unit mm)*
G04 Created by KiCad (PCBNEW (5.1.9)-1) date 2021-02-10 23:03:02*
%MOMM*%
%LPD*%
G01*
G04 APERTURE LIST*
%TA.AperFunction,NonConductor*%
%ADD10C,0.400000*%
%TD*%
%TA.AperFunction,NonConductor*%
%ADD11C,0.500000*%
%TD*%
%TA.AperFunction,NonConductor*%
%ADD12C,0.300000*%
%TD*%
%TA.AperFunction,SMDPad,CuDef*%
%ADD13R,2.600000X1.700000*%
%TD*%
%TA.AperFunction,ComponentPad*%
%ADD14C,3.100000*%
%TD*%
%TA.AperFunction,ComponentPad*%
%ADD15C,0.900000*%
%TD*%
%TA.AperFunction,ComponentPad*%
%ADD16C,1.900000*%
%TD*%
%TA.AperFunction,ComponentPad*%
%ADD17O,1.150000X1.150000*%
%TD*%
%TA.AperFunction,ComponentPad*%
%ADD18R,1.150000X1.150000*%
%TD*%
%TA.AperFunction,ViaPad*%
%ADD19C,1.800000*%
%TD*%
%TA.AperFunction,Conductor*%
%ADD20C,0.800000*%
%TD*%
%TA.AperFunction,Conductor*%
%ADD21C,0.400000*%
%TD*%
%TA.AperFunction,Conductor*%
%ADD22C,0.254000*%
%TD*%
%TA.AperFunction,Conductor*%
%ADD23C,0.100000*%
%TD*%
G04 APERTURE END LIST*
D10*
X33478095Y-45645238D02*
X33573333Y-45550000D01*
X33763809Y-45454761D01*
X34240000Y-45454761D01*
X34430476Y-45550000D01*
X34525714Y-45645238D01*
X34620952Y-45835714D01*
X34620952Y-46026190D01*
X34525714Y-46311904D01*
X33382857Y-47454761D01*
X34620952Y-47454761D01*
X35859047Y-45454761D02*
X36049523Y-45454761D01*
X36240000Y-45550000D01*
X36335238Y-45645238D01*
X36430476Y-45835714D01*
X36525714Y-46216666D01*
X36525714Y-46692857D01*
X36430476Y-47073809D01*
X36335238Y-47264285D01*
X36240000Y-47359523D01*
X36049523Y-47454761D01*
X35859047Y-47454761D01*
X35668571Y-47359523D01*
X35573333Y-47264285D01*
X35478095Y-47073809D01*
X35382857Y-46692857D01*
X35382857Y-46216666D01*
X35478095Y-45835714D01*
X35573333Y-45645238D01*
X35668571Y-45550000D01*
X35859047Y-45454761D01*
X37287619Y-45645238D02*
X37382857Y-45550000D01*
X37573333Y-45454761D01*
X38049523Y-45454761D01*
X38240000Y-45550000D01*
X38335238Y-45645238D01*
X38430476Y-45835714D01*
X38430476Y-46026190D01*
X38335238Y-46311904D01*
X37192380Y-47454761D01*
X38430476Y-47454761D01*
X40335238Y-47454761D02*
X39192380Y-47454761D01*
X39763809Y-47454761D02*
X39763809Y-45454761D01*
X39573333Y-45740476D01*
X39382857Y-45930952D01*
X39192380Y-46026190D01*
X41192380Y-47264285D02*
X41287619Y-47359523D01*
X41192380Y-47454761D01*
X41097142Y-47359523D01*
X41192380Y-47264285D01*
X41192380Y-47454761D01*
X42525714Y-45454761D02*
X42716190Y-45454761D01*
X42906666Y-45550000D01*
X43001904Y-45645238D01*
X43097142Y-45835714D01*
X43192380Y-46216666D01*
X43192380Y-46692857D01*
X43097142Y-47073809D01*
X43001904Y-47264285D01*
X42906666Y-47359523D01*
X42716190Y-47454761D01*
X42525714Y-47454761D01*
X42335238Y-47359523D01*
X42240000Y-47264285D01*
X42144761Y-47073809D01*
X42049523Y-46692857D01*
X42049523Y-46216666D01*
X42144761Y-45835714D01*
X42240000Y-45645238D01*
X42335238Y-45550000D01*
X42525714Y-45454761D01*
X43954285Y-45645238D02*
X44049523Y-45550000D01*
X44240000Y-45454761D01*
X44716190Y-45454761D01*
X44906666Y-45550000D01*
X45001904Y-45645238D01*
X45097142Y-45835714D01*
X45097142Y-46026190D01*
X45001904Y-46311904D01*
X43859047Y-47454761D01*
X45097142Y-47454761D01*
X45954285Y-47264285D02*
X46049523Y-47359523D01*
X45954285Y-47454761D01*
X45859047Y-47359523D01*
X45954285Y-47264285D01*
X45954285Y-47454761D01*
X47954285Y-47454761D02*
X46811428Y-47454761D01*
X47382857Y-47454761D02*
X47382857Y-45454761D01*
X47192380Y-45740476D01*
X47001904Y-45930952D01*
X46811428Y-46026190D01*
X49192380Y-45454761D02*
X49382857Y-45454761D01*
X49573333Y-45550000D01*
X49668571Y-45645238D01*
X49763809Y-45835714D01*
X49859047Y-46216666D01*
X49859047Y-46692857D01*
X49763809Y-47073809D01*
X49668571Y-47264285D01*
X49573333Y-47359523D01*
X49382857Y-47454761D01*
X49192380Y-47454761D01*
X49001904Y-47359523D01*
X48906666Y-47264285D01*
X48811428Y-47073809D01*
X48716190Y-46692857D01*
X48716190Y-46216666D01*
X48811428Y-45835714D01*
X48906666Y-45645238D01*
X49001904Y-45550000D01*
X49192380Y-45454761D01*
X48144761Y-50854761D02*
X47478095Y-49902380D01*
X47001904Y-50854761D02*
X47001904Y-48854761D01*
X47763809Y-48854761D01*
X47954285Y-48950000D01*
X48049523Y-49045238D01*
X48144761Y-49235714D01*
X48144761Y-49521428D01*
X48049523Y-49711904D01*
X47954285Y-49807142D01*
X47763809Y-49902380D01*
X47001904Y-49902380D01*
X49668571Y-49807142D02*
X49001904Y-49807142D01*
X49001904Y-50854761D02*
X49001904Y-48854761D01*
X49954285Y-48854761D01*
D11*
X34532142Y-32535714D02*
X34532142Y-31278571D01*
X34417857Y-31050000D01*
X34189285Y-30935714D01*
X33732142Y-30935714D01*
X33503571Y-31050000D01*
X34532142Y-32421428D02*
X34303571Y-32535714D01*
X33732142Y-32535714D01*
X33503571Y-32421428D01*
X33389285Y-32192857D01*
X33389285Y-31964285D01*
X33503571Y-31735714D01*
X33732142Y-31621428D01*
X34303571Y-31621428D01*
X34532142Y-31507142D01*
X35675000Y-32535714D02*
X35675000Y-30935714D01*
X35675000Y-30135714D02*
X35560714Y-30250000D01*
X35675000Y-30364285D01*
X35789285Y-30250000D01*
X35675000Y-30135714D01*
X35675000Y-30364285D01*
X36817857Y-32535714D02*
X36817857Y-30935714D01*
X36817857Y-31392857D02*
X36932142Y-31164285D01*
X37046428Y-31050000D01*
X37275000Y-30935714D01*
X37503571Y-30935714D01*
X41160714Y-30935714D02*
X41160714Y-33335714D01*
X41160714Y-32421428D02*
X40932142Y-32535714D01*
X40475000Y-32535714D01*
X40246428Y-32421428D01*
X40132142Y-32307142D01*
X40017857Y-32078571D01*
X40017857Y-31392857D01*
X40132142Y-31164285D01*
X40246428Y-31050000D01*
X40475000Y-30935714D01*
X40932142Y-30935714D01*
X41160714Y-31050000D01*
X43332142Y-30935714D02*
X43332142Y-32535714D01*
X42303571Y-30935714D02*
X42303571Y-32192857D01*
X42417857Y-32421428D01*
X42646428Y-32535714D01*
X42989285Y-32535714D01*
X43217857Y-32421428D01*
X43332142Y-32307142D01*
X45503571Y-32535714D02*
X45503571Y-31278571D01*
X45389285Y-31050000D01*
X45160714Y-30935714D01*
X44703571Y-30935714D01*
X44475000Y-31050000D01*
X45503571Y-32421428D02*
X45275000Y-32535714D01*
X44703571Y-32535714D01*
X44475000Y-32421428D01*
X44360714Y-32192857D01*
X44360714Y-31964285D01*
X44475000Y-31735714D01*
X44703571Y-31621428D01*
X45275000Y-31621428D01*
X45503571Y-31507142D01*
X46989285Y-32535714D02*
X46760714Y-32421428D01*
X46646428Y-32192857D01*
X46646428Y-30135714D01*
X47903571Y-32535714D02*
X47903571Y-30935714D01*
X47903571Y-30135714D02*
X47789285Y-30250000D01*
X47903571Y-30364285D01*
X48017857Y-30250000D01*
X47903571Y-30135714D01*
X47903571Y-30364285D01*
X48703571Y-30935714D02*
X49617857Y-30935714D01*
X49046428Y-30135714D02*
X49046428Y-32192857D01*
X49160714Y-32421428D01*
X49389285Y-32535714D01*
X49617857Y-32535714D01*
X50189285Y-30935714D02*
X50760714Y-32535714D01*
X51332142Y-30935714D02*
X50760714Y-32535714D01*
X50532142Y-33107142D01*
X50417857Y-33221428D01*
X50189285Y-33335714D01*
X38532142Y-36635714D02*
X38532142Y-35035714D01*
X38532142Y-35264285D02*
X38646428Y-35150000D01*
X38875000Y-35035714D01*
X39217857Y-35035714D01*
X39446428Y-35150000D01*
X39560714Y-35378571D01*
X39560714Y-36635714D01*
X39560714Y-35378571D02*
X39675000Y-35150000D01*
X39903571Y-35035714D01*
X40246428Y-35035714D01*
X40475000Y-35150000D01*
X40589285Y-35378571D01*
X40589285Y-36635714D01*
X42075000Y-36635714D02*
X41846428Y-36521428D01*
X41732142Y-36407142D01*
X41617857Y-36178571D01*
X41617857Y-35492857D01*
X41732142Y-35264285D01*
X41846428Y-35150000D01*
X42075000Y-35035714D01*
X42417857Y-35035714D01*
X42646428Y-35150000D01*
X42760714Y-35264285D01*
X42875000Y-35492857D01*
X42875000Y-36178571D01*
X42760714Y-36407142D01*
X42646428Y-36521428D01*
X42417857Y-36635714D01*
X42075000Y-36635714D01*
X43903571Y-35035714D02*
X43903571Y-36635714D01*
X43903571Y-35264285D02*
X44017857Y-35150000D01*
X44246428Y-35035714D01*
X44589285Y-35035714D01*
X44817857Y-35150000D01*
X44932142Y-35378571D01*
X44932142Y-36635714D01*
X46075000Y-36635714D02*
X46075000Y-35035714D01*
X46075000Y-34235714D02*
X45960714Y-34350000D01*
X46075000Y-34464285D01*
X46189285Y-34350000D01*
X46075000Y-34235714D01*
X46075000Y-34464285D01*
X46875000Y-35035714D02*
X47789285Y-35035714D01*
X47217857Y-34235714D02*
X47217857Y-36292857D01*
X47332142Y-36521428D01*
X47560714Y-36635714D01*
X47789285Y-36635714D01*
X48932142Y-36635714D02*
X48703571Y-36521428D01*
X48589285Y-36407142D01*
X48474999Y-36178571D01*
X48474999Y-35492857D01*
X48589285Y-35264285D01*
X48703571Y-35150000D01*
X48932142Y-35035714D01*
X49274999Y-35035714D01*
X49503571Y-35150000D01*
X49617857Y-35264285D01*
X49732142Y-35492857D01*
X49732142Y-36178571D01*
X49617857Y-36407142D01*
X49503571Y-36521428D01*
X49274999Y-36635714D01*
X48932142Y-36635714D01*
X50760714Y-36635714D02*
X50760714Y-35035714D01*
X50760714Y-35492857D02*
X50874999Y-35264285D01*
X50989285Y-35150000D01*
X51217857Y-35035714D01*
X51446428Y-35035714D01*
D12*
X45892857Y-38821428D02*
X46369047Y-40154761D01*
X46845238Y-38821428D01*
X47988095Y-38154761D02*
X48178571Y-38154761D01*
X48369047Y-38250000D01*
X48464285Y-38345238D01*
X48559523Y-38535714D01*
X48654761Y-38916666D01*
X48654761Y-39392857D01*
X48559523Y-39773809D01*
X48464285Y-39964285D01*
X48369047Y-40059523D01*
X48178571Y-40154761D01*
X47988095Y-40154761D01*
X47797619Y-40059523D01*
X47702380Y-39964285D01*
X47607142Y-39773809D01*
X47511904Y-39392857D01*
X47511904Y-38916666D01*
X47607142Y-38535714D01*
X47702380Y-38345238D01*
X47797619Y-38250000D01*
X47988095Y-38154761D01*
X49511904Y-39964285D02*
X49607142Y-40059523D01*
X49511904Y-40154761D01*
X49416666Y-40059523D01*
X49511904Y-39964285D01*
X49511904Y-40154761D01*
X51416666Y-38154761D02*
X50464285Y-38154761D01*
X50369047Y-39107142D01*
X50464285Y-39011904D01*
X50654761Y-38916666D01*
X51130952Y-38916666D01*
X51321428Y-39011904D01*
X51416666Y-39107142D01*
X51511904Y-39297619D01*
X51511904Y-39773809D01*
X51416666Y-39964285D01*
X51321428Y-40059523D01*
X51130952Y-40154761D01*
X50654761Y-40154761D01*
X50464285Y-40059523D01*
X50369047Y-39964285D01*
D13*
%TO.P,J1,17*%
%TO.N,Net-(J1-Pad17)*%
X63577000Y-44542000D03*
%TO.P,J1,18*%
%TO.N,Net-(J1-Pad18)*%
X58527000Y-44542000D03*
%TO.P,J1,20*%
%TO.N,PMS_RESET*%
X58527000Y-47082000D03*
%TO.P,J1,19*%
%TO.N,Net-(J1-Pad19)*%
X63577000Y-47082000D03*
%TO.P,J1,22*%
%TO.N,Net-(J1-Pad22)*%
X58527000Y-49622000D03*
%TO.P,J1,23*%
%TO.N,Net-(J1-Pad23)*%
X63577000Y-52162000D03*
%TO.P,J1,24*%
%TO.N,Net-(J1-Pad24)*%
X58527000Y-52162000D03*
%TO.P,J1,30*%
%TO.N,Net-(J1-Pad30)*%
X58527000Y-59782000D03*
%TO.P,J1,27*%
%TO.N,Net-(J1-Pad27)*%
X63577000Y-57242000D03*
%TO.P,J1,29*%
%TO.N,Net-(J1-Pad29)*%
X63577000Y-59782000D03*
%TO.P,J1,21*%
%TO.N,Net-(J1-Pad21)*%
X63577000Y-49622000D03*
%TO.P,J1,28*%
%TO.N,+5V*%
X58527000Y-57242000D03*
%TO.P,J1,25*%
%TO.N,Net-(J1-Pad25)*%
X63577000Y-54702000D03*
%TO.P,J1,26*%
%TO.N,Net-(J1-Pad26)*%
X58527000Y-54702000D03*
%TO.P,J1,9*%
%TO.N,Net-(J1-Pad9)*%
X63577000Y-34382000D03*
%TO.P,J1,10*%
%TO.N,Net-(J1-Pad10)*%
X58527000Y-34382000D03*
%TO.P,J1,12*%
%TO.N,+3V3*%
X58527000Y-36922000D03*
%TO.P,J1,11*%
%TO.N,Net-(J1-Pad11)*%
X63577000Y-36922000D03*
%TO.P,J1,14*%
%TO.N,PMS_RX*%
X58527000Y-39462000D03*
%TO.P,J1,15*%
%TO.N,Net-(J1-Pad15)*%
X63577000Y-42002000D03*
%TO.P,J1,16*%
%TO.N,Net-(J1-Pad16)*%
X58527000Y-42002000D03*
%TO.P,J1,13*%
%TO.N,PMS_TX*%
X63577000Y-39462000D03*
%TO.P,J1,5*%
%TO.N,GND*%
X63577000Y-29302000D03*
%TO.P,J1,6*%
%TO.N,Net-(J1-Pad6)*%
X58527000Y-29302000D03*
%TO.P,J1,8*%
%TO.N,Net-(J1-Pad8)*%
X58527000Y-31842000D03*
%TO.P,J1,7*%
%TO.N,PMS_SET*%
X63577000Y-31842000D03*
%TO.P,J1,3*%
%TO.N,GND*%
X63577000Y-26762000D03*
%TO.P,J1,4*%
%TO.N,Net-(J1-Pad4)*%
X58527000Y-26762000D03*
%TO.P,J1,1*%
%TO.N,GND*%
X63577000Y-24222000D03*
%TO.P,J1,2*%
%TO.N,Net-(J1-Pad2)*%
X58527000Y-24222000D03*
%TD*%
D14*
%TO.P,,0*%
%TO.N,N/C*%
X64002000Y-20002000D03*
%TD*%
D15*
%TO.P,,0*%
%TO.N,N/C*%
X61052000Y-55972000D03*
%TD*%
D16*
%TO.P,,0*%
%TO.N,N/C*%
X60002000Y-64002000D03*
%TD*%
D14*
%TO.P,,0*%
%TO.N,N/C*%
X64002000Y-64002000D03*
%TD*%
D16*
%TO.P,,0*%
%TO.N,N/C*%
X60002000Y-20002000D03*
%TD*%
D15*
%TO.P,,0*%
%TO.N,N/C*%
X61052000Y-58512000D03*
%TD*%
D16*
%TO.P,,0*%
%TO.N,N/C*%
X24002000Y-64002000D03*
%TD*%
D14*
%TO.P,,0*%
%TO.N,N/C*%
X20002000Y-64002000D03*
%TD*%
%TO.P,,0*%
%TO.N,N/C*%
X20002000Y-20002000D03*
%TD*%
D16*
%TO.P,,0*%
%TO.N,N/C*%
X24002000Y-20002000D03*
%TD*%
%TO.P,R2,2*%
%TO.N,PMS_SET*%
%TA.AperFunction,SMDPad,CuDef*%
G36*
G01*
X30549998Y-30400000D02*
X31450002Y-30400000D01*
G75*
G02*
X31700000Y-30649998I0J-249998D01*
G01*
X31700000Y-31175002D01*
G75*
G02*
X31450002Y-31425000I-249998J0D01*
G01*
X30549998Y-31425000D01*
G75*
G02*
X30300000Y-31175002I0J249998D01*
G01*
X30300000Y-30649998D01*
G75*
G02*
X30549998Y-30400000I249998J0D01*
G01*
G37*
%TD.AperFunction*%
%TO.P,R2,1*%
%TO.N,+5V*%
%TA.AperFunction,SMDPad,CuDef*%
G36*
G01*
X30549998Y-28575000D02*
X31450002Y-28575000D01*
G75*
G02*
X31700000Y-28824998I0J-249998D01*
G01*
X31700000Y-29350002D01*
G75*
G02*
X31450002Y-29600000I-249998J0D01*
G01*
X30549998Y-29600000D01*
G75*
G02*
X30300000Y-29350002I0J249998D01*
G01*
X30300000Y-28824998D01*
G75*
G02*
X30549998Y-28575000I249998J0D01*
G01*
G37*
%TD.AperFunction*%
%TD*%
D17*
%TO.P,J2,4*%
%TO.N,GND*%
X24100000Y-29230000D03*
%TO.P,J2,2*%
%TO.N,+5V*%
X24100000Y-27960000D03*
%TO.P,J2,8*%
%TO.N,Net-(J2-Pad8)*%
X24100000Y-31770000D03*
%TO.P,J2,9*%
%TO.N,PMS_TX*%
X22830000Y-33040000D03*
%TO.P,J2,10*%
%TO.N,PMS_SET*%
X24100000Y-33040000D03*
%TO.P,J2,3*%
%TO.N,GND*%
X22830000Y-29230000D03*
%TO.P,J2,6*%
%TO.N,Net-(J2-Pad6)*%
X24100000Y-30500000D03*
%TO.P,J2,7*%
%TO.N,PMS_RX*%
X22830000Y-31770000D03*
D18*
%TO.P,J2,1*%
%TO.N,+5V*%
X22830000Y-27960000D03*
D17*
%TO.P,J2,5*%
%TO.N,PMS_RESET*%
X22830000Y-30500000D03*
%TD*%
%TO.P,R1,2*%
%TO.N,PMS_RESET*%
%TA.AperFunction,SMDPad,CuDef*%
G36*
G01*
X19799998Y-29150000D02*
X20700002Y-29150000D01*
G75*
G02*
X20950000Y-29399998I0J-249998D01*
G01*
X20950000Y-29925002D01*
G75*
G02*
X20700002Y-30175000I-249998J0D01*
G01*
X19799998Y-30175000D01*
G75*
G02*
X19550000Y-29925002I0J249998D01*
G01*
X19550000Y-29399998D01*
G75*
G02*
X19799998Y-29150000I249998J0D01*
G01*
G37*
%TD.AperFunction*%
%TO.P,R1,1*%
%TO.N,+5V*%
%TA.AperFunction,SMDPad,CuDef*%
G36*
G01*
X19799998Y-27325000D02*
X20700002Y-27325000D01*
G75*
G02*
X20950000Y-27574998I0J-249998D01*
G01*
X20950000Y-28100002D01*
G75*
G02*
X20700002Y-28350000I-249998J0D01*
G01*
X19799998Y-28350000D01*
G75*
G02*
X19550000Y-28100002I0J249998D01*
G01*
X19550000Y-27574998D01*
G75*
G02*
X19799998Y-27325000I249998J0D01*
G01*
G37*
%TD.AperFunction*%
%TD*%
D19*
%TO.N,GND*%
X65577000Y-24250000D03*
X65500000Y-29250000D03*
X27250000Y-29250000D03*
X65676964Y-26750000D03*
X34474292Y-26299990D03*
%TO.N,Net-(J1-Pad2)*%
X54750009Y-24250009D03*
%TO.N,Net-(J1-Pad4)*%
X54750000Y-26749986D03*
%TO.N,Net-(J1-Pad8)*%
X55000010Y-31750000D03*
%TO.N,Net-(J1-Pad6)*%
X54763410Y-29331799D03*
%TO.N,Net-(J1-Pad16)*%
X55000000Y-42000000D03*
%TO.N,+3V3*%
X54999998Y-37000000D03*
%TO.N,Net-(J1-Pad11)*%
X65500000Y-37000000D03*
%TO.N,Net-(J1-Pad10)*%
X55000000Y-34499996D03*
%TO.N,Net-(J1-Pad9)*%
X65500000Y-34250000D03*
%TO.N,Net-(J1-Pad25)*%
X65500000Y-54750000D03*
%TO.N,Net-(J1-Pad27)*%
X65500000Y-57250000D03*
%TO.N,Net-(J1-Pad30)*%
X54942473Y-59749996D03*
%TO.N,+5V*%
X54960238Y-57069141D03*
%TO.N,Net-(J1-Pad29)*%
X65500000Y-59750000D03*
%TO.N,Net-(J1-Pad23)*%
X65500000Y-52250000D03*
%TO.N,Net-(J1-Pad19)*%
X65500000Y-47000000D03*
%TO.N,Net-(J1-Pad18)*%
X55000000Y-44500000D03*
%TO.N,PMS_RESET*%
X54983990Y-47000000D03*
%TO.N,PMS_SET*%
X65500000Y-31750000D03*
X53968741Y-20849989D03*
%TO.N,PMS_RX*%
X55000000Y-39500000D03*
%TO.N,PMS_TX*%
X65500000Y-39500000D03*
X52959795Y-22971282D03*
%TO.N,Net-(J1-Pad17)*%
X65500000Y-44500000D03*
%TO.N,Net-(J1-Pad21)*%
X65500000Y-49750000D03*
%TO.N,Net-(J1-Pad15)*%
X65498000Y-42002000D03*
%TO.N,Net-(J1-Pad22)*%
X55000000Y-49500000D03*
%TO.N,Net-(J1-Pad24)*%
X55000000Y-52250000D03*
%TO.N,Net-(J1-Pad26)*%
X55000000Y-54750000D03*
%TD*%
D20*
%TO.N,GND*%
X65549000Y-24222000D02*
X65577000Y-24250000D01*
X63577000Y-24222000D02*
X65549000Y-24222000D01*
X65448000Y-29302000D02*
X65500000Y-29250000D01*
X63577000Y-29302000D02*
X65448000Y-29302000D01*
X63577000Y-26762000D02*
X63577000Y-29302000D01*
X63577000Y-26762000D02*
X63577000Y-24222000D01*
D21*
X22830000Y-29230000D02*
X24100000Y-29230000D01*
D20*
X27230000Y-29230000D02*
X27250000Y-29250000D01*
D21*
X24100000Y-29230000D02*
X27230000Y-29230000D01*
D20*
X63589000Y-26750000D02*
X65676964Y-26750000D01*
X63577000Y-26762000D02*
X63589000Y-26750000D01*
X41624295Y-19149987D02*
X34474292Y-26299990D01*
X63577000Y-24222000D02*
X63577000Y-22572000D01*
D21*
X51850013Y-19149987D02*
X41624295Y-19149987D01*
X59257999Y-18451999D02*
X58560011Y-19149987D01*
X61155997Y-18451999D02*
X59257999Y-18451999D01*
X61851999Y-19148001D02*
X61155997Y-18451999D01*
X61851999Y-21720615D02*
X61851999Y-19148001D01*
X58560011Y-19149987D02*
X51850013Y-19149987D01*
X62131384Y-22000000D02*
X61851999Y-21720615D01*
X63154000Y-22000000D02*
X62131384Y-22000000D01*
X63577000Y-22423000D02*
X63154000Y-22000000D01*
X63577000Y-22572000D02*
X63577000Y-22423000D01*
D20*
%TO.N,Net-(J1-Pad2)*%
X54778018Y-24222000D02*
X54750009Y-24250009D01*
X58527000Y-24222000D02*
X54778018Y-24222000D01*
%TO.N,Net-(J1-Pad4)*%
X58527000Y-26762000D02*
X54762014Y-26762000D01*
X54762014Y-26762000D02*
X54750000Y-26749986D01*
%TO.N,Net-(J1-Pad8)*%
X55092010Y-31842000D02*
X55000010Y-31750000D01*
X58527000Y-31842000D02*
X55092010Y-31842000D01*
%TO.N,Net-(J1-Pad6)*%
X58527000Y-29302000D02*
X54793209Y-29302000D01*
X54793209Y-29302000D02*
X54763410Y-29331799D01*
%TO.N,Net-(J1-Pad16)*%
X55002000Y-42002000D02*
X55000000Y-42000000D01*
X58527000Y-42002000D02*
X55002000Y-42002000D01*
%TO.N,+3V3*%
X55077998Y-36922000D02*
X54999998Y-37000000D01*
X58527000Y-36922000D02*
X55077998Y-36922000D01*
%TO.N,Net-(J1-Pad11)*%
X63655000Y-37000000D02*
X63577000Y-36922000D01*
X65500000Y-37000000D02*
X63655000Y-37000000D01*
%TO.N,Net-(J1-Pad10)*%
X58527000Y-34382000D02*
X55117996Y-34382000D01*
X55117996Y-34382000D02*
X55000000Y-34499996D01*
%TO.N,Net-(J1-Pad9)*%
X65368000Y-34382000D02*
X65500000Y-34250000D01*
X63577000Y-34382000D02*
X65368000Y-34382000D01*
%TO.N,Net-(J1-Pad25)*%
X65452000Y-54702000D02*
X65500000Y-54750000D01*
X63577000Y-54702000D02*
X65452000Y-54702000D01*
%TO.N,Net-(J1-Pad27)*%
X63585000Y-57250000D02*
X63577000Y-57242000D01*
X65500000Y-57250000D02*
X63585000Y-57250000D01*
%TO.N,Net-(J1-Pad30)*%
X54974477Y-59782000D02*
X54942473Y-59749996D01*
X58527000Y-59782000D02*
X54974477Y-59782000D01*
%TO.N,+5V*%
X21977999Y-27454999D02*
X22830000Y-27454999D01*
X21595498Y-27837500D02*
X21977999Y-27454999D01*
X20250000Y-27837500D02*
X21595498Y-27837500D01*
D21*
X22830000Y-27960000D02*
X22830000Y-27454999D01*
X22830000Y-27960000D02*
X24100000Y-27960000D01*
D20*
X31000000Y-29087500D02*
X29872500Y-27960000D01*
X25210000Y-27960000D02*
X25210000Y-27790000D01*
D21*
X25210000Y-27960000D02*
X24100000Y-27960000D01*
D20*
X25210000Y-27790000D02*
X26000000Y-27000000D01*
X28912500Y-27000000D02*
X29872500Y-27960000D01*
X26000000Y-27000000D02*
X28912500Y-27000000D01*
X55133097Y-57242000D02*
X54960238Y-57069141D01*
X18749990Y-34389132D02*
X41429999Y-57069141D01*
X41429999Y-57069141D02*
X54960238Y-57069141D01*
X58527000Y-57242000D02*
X55133097Y-57242000D01*
X18749990Y-28637510D02*
X18749990Y-34389132D01*
X19550000Y-27837500D02*
X18749990Y-28637510D01*
X20250000Y-27837500D02*
X19550000Y-27837500D01*
%TO.N,Net-(J1-Pad29)*%
X63609000Y-59750000D02*
X63577000Y-59782000D01*
X65500000Y-59750000D02*
X63609000Y-59750000D01*
%TO.N,Net-(J1-Pad23)*%
X63665000Y-52250000D02*
X63577000Y-52162000D01*
X65500000Y-52250000D02*
X63665000Y-52250000D01*
%TO.N,Net-(J1-Pad19)*%
X63659000Y-47000000D02*
X63577000Y-47082000D01*
X65500000Y-47000000D02*
X63659000Y-47000000D01*
%TO.N,Net-(J1-Pad18)*%
X58527000Y-44542000D02*
X55042000Y-44542000D01*
X55042000Y-44542000D02*
X55000000Y-44500000D01*
%TO.N,PMS_RESET*%
X20250000Y-29662500D02*
X20635498Y-29662500D01*
X20635498Y-29662500D02*
X21054999Y-30082001D01*
X21054999Y-30082001D02*
X21472998Y-30500000D01*
D21*
X21472998Y-30500000D02*
X22830000Y-30500000D01*
D20*
X21472998Y-30500000D02*
X20254989Y-31718009D01*
X55065990Y-47082000D02*
X54983990Y-47000000D01*
X20254989Y-34197061D02*
X30307928Y-44250000D01*
X52233990Y-44250000D02*
X54983990Y-47000000D01*
X20254989Y-31718009D02*
X20254989Y-34197061D01*
X58527000Y-47082000D02*
X55065990Y-47082000D01*
X30307928Y-44250000D02*
X52233990Y-44250000D01*
%TO.N,PMS_SET*%
X63669000Y-31750000D02*
X63577000Y-31842000D01*
X65500000Y-31750000D02*
X63669000Y-31750000D01*
D21*
X24100000Y-33040000D02*
X24605001Y-33545001D01*
D20*
X28367499Y-33545001D02*
X31000000Y-30912500D01*
X24605001Y-33545001D02*
X28367499Y-33545001D01*
X61877000Y-31842000D02*
X63577000Y-31842000D01*
D21*
X61550011Y-31515011D02*
X61877000Y-31842000D01*
X61550011Y-22550011D02*
X61550011Y-31515011D01*
D20*
X35893472Y-28000000D02*
X43043483Y-20849989D01*
X34250000Y-28000000D02*
X35893472Y-28000000D01*
X32500010Y-29749990D02*
X34250000Y-28000000D01*
X32500010Y-29784932D02*
X32500010Y-29749990D01*
X43043483Y-20849989D02*
X53968741Y-20849989D01*
X31000000Y-30912500D02*
X31337500Y-30912500D01*
X31849990Y-30400010D02*
X31884932Y-30400010D01*
X31337500Y-30912500D02*
X31849990Y-30400010D01*
X31884932Y-30400010D02*
X32500010Y-29784932D01*
D21*
X60749988Y-21749988D02*
X61550011Y-22550011D01*
X54868740Y-21749988D02*
X60749988Y-21749988D01*
X53968741Y-20849989D02*
X54868740Y-21749988D01*
%TO.N,PMS_RX*%
X22770000Y-31770000D02*
X22064998Y-31770000D01*
X22830000Y-31770000D02*
X22770000Y-31770000D01*
D20*
X55038000Y-39462000D02*
X55000000Y-39500000D01*
X58527000Y-39462000D02*
X55038000Y-39462000D01*
X51450011Y-43049989D02*
X55000000Y-39500000D01*
X21455000Y-33700002D02*
X30804987Y-43049989D01*
X21455000Y-32379998D02*
X21455000Y-33700002D01*
X22064998Y-31770000D02*
X21455000Y-32379998D01*
X30804987Y-43049989D02*
X51450011Y-43049989D01*
%TO.N,PMS_TX*%
X65462000Y-39462000D02*
X65500000Y-39500000D01*
X63577000Y-39462000D02*
X65462000Y-39462000D01*
X61877000Y-39462000D02*
X63577000Y-39462000D01*
X60750000Y-38335000D02*
X61877000Y-39462000D01*
X60750000Y-38335000D02*
X60750000Y-32500000D01*
D21*
X23969964Y-34648966D02*
X24101034Y-34648966D01*
X22830000Y-33509002D02*
X23969964Y-34648966D01*
X22830000Y-33040000D02*
X22830000Y-33509002D01*
D20*
X31302046Y-41849978D02*
X24101034Y-34648966D01*
X50936949Y-41849978D02*
X31302046Y-41849978D01*
X52799999Y-39986928D02*
X50936949Y-41849978D01*
X52799999Y-23683999D02*
X52799999Y-39986928D01*
X52799999Y-23683999D02*
X52799999Y-23131078D01*
X52799999Y-23131078D02*
X52959795Y-22971282D01*
X52959795Y-22971282D02*
X53512734Y-22971282D01*
X53512734Y-22971282D02*
X53934026Y-22549990D01*
D21*
X59405992Y-22549990D02*
X53934026Y-22549990D01*
X59428001Y-22571999D02*
X59405992Y-22549990D01*
X60071999Y-22571999D02*
X59428001Y-22571999D01*
X60750000Y-23250000D02*
X60071999Y-22571999D01*
X60750000Y-32500000D02*
X60750000Y-23250000D01*
D20*
%TO.N,Net-(J1-Pad17)*%
X65458000Y-44542000D02*
X65500000Y-44500000D01*
X63577000Y-44542000D02*
X65458000Y-44542000D01*
%TO.N,Net-(J1-Pad21)*%
X65372000Y-49622000D02*
X65500000Y-49750000D01*
X63577000Y-49622000D02*
X65372000Y-49622000D01*
%TO.N,Net-(J1-Pad15)*%
X65498000Y-42002000D02*
X63577000Y-42002000D01*
%TO.N,Net-(J1-Pad22)*%
X58527000Y-49622000D02*
X55122000Y-49622000D01*
X55122000Y-49622000D02*
X55000000Y-49500000D01*
%TO.N,Net-(J1-Pad24)*%
X58527000Y-52162000D02*
X55088000Y-52162000D01*
X55088000Y-52162000D02*
X55000000Y-52250000D01*
%TO.N,Net-(J1-Pad26)*%
X58527000Y-54702000D02*
X55048000Y-54702000D01*
X55048000Y-54702000D02*
X55000000Y-54750000D01*
%TD*%
D22*
%TO.N,GND*%
X66835600Y-19070925D02*
X66835600Y-31245492D01*
X66764591Y-31074062D01*
X66608424Y-30840340D01*
X66409660Y-30641576D01*
X66175938Y-30485409D01*
X65916241Y-30377838D01*
X65640547Y-30323000D01*
X65488701Y-30323000D01*
X65502812Y-30276482D01*
X65515072Y-30152000D01*
X65512000Y-29587750D01*
X65353250Y-29429000D01*
X63704000Y-29429000D01*
X63704000Y-29449000D01*
X63450000Y-29449000D01*
X63450000Y-29429000D01*
X63430000Y-29429000D01*
X63430000Y-29175000D01*
X63450000Y-29175000D01*
X63450000Y-26889000D01*
X63704000Y-26889000D01*
X63704000Y-29175000D01*
X65353250Y-29175000D01*
X65512000Y-29016250D01*
X65515072Y-28452000D01*
X65502812Y-28327518D01*
X65466502Y-28207820D01*
X65407537Y-28097506D01*
X65353778Y-28032000D01*
X65407537Y-27966494D01*
X65466502Y-27856180D01*
X65502812Y-27736482D01*
X65515072Y-27612000D01*
X65512000Y-27047750D01*
X65353250Y-26889000D01*
X63704000Y-26889000D01*
X63450000Y-26889000D01*
X63430000Y-26889000D01*
X63430000Y-26635000D01*
X63450000Y-26635000D01*
X63450000Y-24349000D01*
X63704000Y-24349000D01*
X63704000Y-26635000D01*
X65353250Y-26635000D01*
X65512000Y-26476250D01*
X65515072Y-25912000D01*
X65502812Y-25787518D01*
X65466502Y-25667820D01*
X65407537Y-25557506D01*
X65353778Y-25492000D01*
X65407537Y-25426494D01*
X65466502Y-25316180D01*
X65502812Y-25196482D01*
X65515072Y-25072000D01*
X65512000Y-24507750D01*
X65353250Y-24349000D01*
X63704000Y-24349000D01*
X63450000Y-24349000D01*
X63430000Y-24349000D01*
X63430000Y-24095000D01*
X63450000Y-24095000D01*
X63450000Y-22895750D01*
X63704000Y-22895750D01*
X63704000Y-24095000D01*
X65353250Y-24095000D01*
X65512000Y-23936250D01*
X65515072Y-23372000D01*
X65502812Y-23247518D01*
X65466502Y-23127820D01*
X65407537Y-23017506D01*
X65328185Y-22920815D01*
X65231494Y-22841463D01*
X65121180Y-22782498D01*
X65001482Y-22746188D01*
X64877000Y-22733928D01*
X63862750Y-22737000D01*
X63704000Y-22895750D01*
X63450000Y-22895750D01*
X63291250Y-22737000D01*
X62277011Y-22733928D01*
X62277011Y-22585716D01*
X62280528Y-22550010D01*
X62277011Y-22514303D01*
X62266491Y-22407494D01*
X62224921Y-22270454D01*
X62157414Y-22144158D01*
X62066564Y-22033457D01*
X62038827Y-22010694D01*
X61289313Y-21261181D01*
X61266542Y-21233434D01*
X61155841Y-21142585D01*
X61029545Y-21075078D01*
X61020469Y-21072325D01*
X61149261Y-20943533D01*
X61310901Y-20701622D01*
X61422240Y-20432825D01*
X61479000Y-20147472D01*
X61479000Y-19856528D01*
X61467246Y-19797433D01*
X61925000Y-19797433D01*
X61925000Y-20206567D01*
X62004818Y-20607839D01*
X62161386Y-20985829D01*
X62388689Y-21326011D01*
X62677989Y-21615311D01*
X63018171Y-21842614D01*
X63396161Y-21999182D01*
X63797433Y-22079000D01*
X64206567Y-22079000D01*
X64607839Y-21999182D01*
X64985829Y-21842614D01*
X65326011Y-21615311D01*
X65615311Y-21326011D01*
X65842614Y-20985829D01*
X65999182Y-20607839D01*
X66079000Y-20206567D01*
X66079000Y-19797433D01*
X65999182Y-19396161D01*
X65842614Y-19018171D01*
X65615311Y-18677989D01*
X65326011Y-18388689D01*
X64985829Y-18161386D01*
X64607839Y-18004818D01*
X64206567Y-17925000D01*
X63797433Y-17925000D01*
X63396161Y-18004818D01*
X63018171Y-18161386D01*
X62677989Y-18388689D01*
X62388689Y-18677989D01*
X62161386Y-19018171D01*
X62004818Y-19396161D01*
X61925000Y-19797433D01*
X61467246Y-19797433D01*
X61422240Y-19571175D01*
X61310901Y-19302378D01*
X61149261Y-19060467D01*
X60943533Y-18854739D01*
X60701622Y-18693099D01*
X60432825Y-18581760D01*
X60147472Y-18525000D01*
X59856528Y-18525000D01*
X59571175Y-18581760D01*
X59302378Y-18693099D01*
X59060467Y-18854739D01*
X58854739Y-19060467D01*
X58693099Y-19302378D01*
X58581760Y-19571175D01*
X58525000Y-19856528D01*
X58525000Y-20147472D01*
X58581760Y-20432825D01*
X58693099Y-20701622D01*
X58854739Y-20943533D01*
X58934194Y-21022988D01*
X55389286Y-21022988D01*
X55395741Y-20990536D01*
X55395741Y-20709442D01*
X55340903Y-20433748D01*
X55233332Y-20174051D01*
X55077165Y-19940329D01*
X54878401Y-19741565D01*
X54644679Y-19585398D01*
X54384982Y-19477827D01*
X54109288Y-19422989D01*
X53828194Y-19422989D01*
X53552500Y-19477827D01*
X53292803Y-19585398D01*
X53059081Y-19741565D01*
X52877657Y-19922989D01*
X43089010Y-19922989D01*
X43043483Y-19918505D01*
X42997956Y-19922989D01*
X42997945Y-19922989D01*
X42861759Y-19936402D01*
X42687019Y-19989409D01*
X42525978Y-20075487D01*
X42420195Y-20162301D01*
X42420191Y-20162305D01*
X42384824Y-20191330D01*
X42355799Y-20226697D01*
X35509497Y-27073000D01*
X34295527Y-27073000D01*
X34250000Y-27068516D01*
X34204473Y-27073000D01*
X34204462Y-27073000D01*
X34068276Y-27086413D01*
X33920169Y-27131341D01*
X33893536Y-27139420D01*
X33732494Y-27225498D01*
X33626712Y-27312312D01*
X33626708Y-27312316D01*
X33591341Y-27341341D01*
X33562316Y-27376708D01*
X32219191Y-28719834D01*
X32214570Y-28672916D01*
X32170210Y-28526678D01*
X32098172Y-28391905D01*
X32001225Y-28273775D01*
X31883095Y-28176828D01*
X31748322Y-28104790D01*
X31602084Y-28060430D01*
X31450002Y-28045451D01*
X31268927Y-28045451D01*
X30560192Y-27336717D01*
X30560188Y-27336712D01*
X29600188Y-26376713D01*
X29571159Y-26341341D01*
X29430005Y-26225499D01*
X29268964Y-26139420D01*
X29094224Y-26086413D01*
X28958038Y-26073000D01*
X28958027Y-26073000D01*
X28912500Y-26068516D01*
X28866973Y-26073000D01*
X26045527Y-26073000D01*
X26000000Y-26068516D01*
X25954473Y-26073000D01*
X25954462Y-26073000D01*
X25818276Y-26086413D01*
X25645870Y-26138712D01*
X25643536Y-26139420D01*
X25482494Y-26225498D01*
X25376712Y-26312312D01*
X25376708Y-26312316D01*
X25341341Y-26341341D01*
X25312316Y-26376708D01*
X24672114Y-27016910D01*
X24621993Y-26983420D01*
X24421442Y-26900349D01*
X24208538Y-26858000D01*
X23991462Y-26858000D01*
X23778558Y-26900349D01*
X23687105Y-26938230D01*
X23607650Y-26895761D01*
X23557855Y-26880656D01*
X23488659Y-26796340D01*
X23347505Y-26680498D01*
X23186464Y-26594419D01*
X23011724Y-26541412D01*
X22875538Y-26527999D01*
X22023525Y-26527999D01*
X21977998Y-26523515D01*
X21932471Y-26527999D01*
X21932461Y-26527999D01*
X21796275Y-26541412D01*
X21621535Y-26594419D01*
X21460494Y-26680498D01*
X21319340Y-26796340D01*
X21290311Y-26831712D01*
X21211523Y-26910500D01*
X21102548Y-26910500D01*
X20998322Y-26854790D01*
X20852084Y-26810430D01*
X20700002Y-26795451D01*
X19799998Y-26795451D01*
X19647916Y-26810430D01*
X19501678Y-26854790D01*
X19373281Y-26923420D01*
X19368276Y-26923913D01*
X19193536Y-26976920D01*
X19032494Y-27062999D01*
X18926712Y-27149812D01*
X18926708Y-27149816D01*
X18891341Y-27178841D01*
X18862316Y-27214208D01*
X18126703Y-27949822D01*
X18091331Y-27978851D01*
X18062303Y-28014222D01*
X18062302Y-28014223D01*
X17975489Y-28120005D01*
X17893297Y-28273775D01*
X17889410Y-28281047D01*
X17836403Y-28455787D01*
X17822990Y-28591973D01*
X17822990Y-28591983D01*
X17818506Y-28637510D01*
X17822990Y-28683037D01*
X17822991Y-34343595D01*
X17818506Y-34389132D01*
X17822991Y-34434669D01*
X17822991Y-34434670D01*
X17835702Y-34563723D01*
X17836404Y-34570855D01*
X17889410Y-34745595D01*
X17975489Y-34906637D01*
X18062302Y-35012419D01*
X18062307Y-35012424D01*
X18091332Y-35047791D01*
X18126699Y-35076816D01*
X32430143Y-49380260D01*
X32430143Y-52337000D01*
X35386883Y-52337000D01*
X40742311Y-57692428D01*
X40771340Y-57727800D01*
X40806711Y-57756828D01*
X40912493Y-57843642D01*
X40997724Y-57889199D01*
X41073535Y-57929721D01*
X41248275Y-57982728D01*
X41384461Y-57996141D01*
X41384473Y-57996141D01*
X41429998Y-58000625D01*
X41475523Y-57996141D01*
X53869154Y-57996141D01*
X54050578Y-58177565D01*
X54284300Y-58333732D01*
X54458501Y-58405889D01*
X54266535Y-58485405D01*
X54032813Y-58641572D01*
X53834049Y-58840336D01*
X53677882Y-59074058D01*
X53570311Y-59333755D01*
X53515473Y-59609449D01*
X53515473Y-59890543D01*
X53570311Y-60166237D01*
X53677882Y-60425934D01*
X53834049Y-60659656D01*
X54032813Y-60858420D01*
X54266535Y-61014587D01*
X54526232Y-61122158D01*
X54801926Y-61176996D01*
X55083020Y-61176996D01*
X55358714Y-61122158D01*
X55618411Y-61014587D01*
X55852133Y-60858420D01*
X56001553Y-60709000D01*
X56705035Y-60709000D01*
X56707626Y-60735310D01*
X56737761Y-60834650D01*
X56786696Y-60926202D01*
X56852552Y-61006448D01*
X56932798Y-61072304D01*
X57024350Y-61121239D01*
X57123690Y-61151374D01*
X57227000Y-61161549D01*
X59827000Y-61161549D01*
X59930310Y-61151374D01*
X60029650Y-61121239D01*
X60121202Y-61072304D01*
X60201448Y-61006448D01*
X60267304Y-60926202D01*
X60316239Y-60834650D01*
X60346374Y-60735310D01*
X60356549Y-60632000D01*
X60356549Y-59198235D01*
X60429199Y-59270885D01*
X60589217Y-59377806D01*
X60767020Y-59451454D01*
X60955774Y-59489000D01*
X61148226Y-59489000D01*
X61336980Y-59451454D01*
X61514783Y-59377806D01*
X61674801Y-59270885D01*
X61747451Y-59198235D01*
X61747451Y-60632000D01*
X61757626Y-60735310D01*
X61787761Y-60834650D01*
X61836696Y-60926202D01*
X61902552Y-61006448D01*
X61982798Y-61072304D01*
X62074350Y-61121239D01*
X62173690Y-61151374D01*
X62277000Y-61161549D01*
X64877000Y-61161549D01*
X64980310Y-61151374D01*
X65079650Y-61121239D01*
X65080471Y-61120800D01*
X65083759Y-61122162D01*
X65359453Y-61177000D01*
X65640547Y-61177000D01*
X65916241Y-61122162D01*
X66175938Y-61014591D01*
X66409660Y-60858424D01*
X66608424Y-60659660D01*
X66764591Y-60425938D01*
X66835601Y-60254507D01*
X66835601Y-64933074D01*
X64933076Y-66835600D01*
X19070925Y-66835600D01*
X17168400Y-64933076D01*
X17168400Y-63797433D01*
X17925000Y-63797433D01*
X17925000Y-64206567D01*
X18004818Y-64607839D01*
X18161386Y-64985829D01*
X18388689Y-65326011D01*
X18677989Y-65615311D01*
X19018171Y-65842614D01*
X19396161Y-65999182D01*
X19797433Y-66079000D01*
X20206567Y-66079000D01*
X20607839Y-65999182D01*
X20985829Y-65842614D01*
X21326011Y-65615311D01*
X21615311Y-65326011D01*
X21842614Y-64985829D01*
X21999182Y-64607839D01*
X22079000Y-64206567D01*
X22079000Y-63856528D01*
X22525000Y-63856528D01*
X22525000Y-64147472D01*
X22581760Y-64432825D01*
X22693099Y-64701622D01*
X22854739Y-64943533D01*
X23060467Y-65149261D01*
X23302378Y-65310901D01*
X23571175Y-65422240D01*
X23856528Y-65479000D01*
X24147472Y-65479000D01*
X24432825Y-65422240D01*
X24701622Y-65310901D01*
X24943533Y-65149261D01*
X25149261Y-64943533D01*
X25310901Y-64701622D01*
X25422240Y-64432825D01*
X25479000Y-64147472D01*
X25479000Y-63856528D01*
X58525000Y-63856528D01*
X58525000Y-64147472D01*
X58581760Y-64432825D01*
X58693099Y-64701622D01*
X58854739Y-64943533D01*
X59060467Y-65149261D01*
X59302378Y-65310901D01*
X59571175Y-65422240D01*
X59856528Y-65479000D01*
X60147472Y-65479000D01*
X60432825Y-65422240D01*
X60701622Y-65310901D01*
X60943533Y-65149261D01*
X61149261Y-64943533D01*
X61310901Y-64701622D01*
X61422240Y-64432825D01*
X61479000Y-64147472D01*
X61479000Y-63856528D01*
X61467246Y-63797433D01*
X61925000Y-63797433D01*
X61925000Y-64206567D01*
X62004818Y-64607839D01*
X62161386Y-64985829D01*
X62388689Y-65326011D01*
X62677989Y-65615311D01*
X63018171Y-65842614D01*
X63396161Y-65999182D01*
X63797433Y-66079000D01*
X64206567Y-66079000D01*
X64607839Y-65999182D01*
X64985829Y-65842614D01*
X65326011Y-65615311D01*
X65615311Y-65326011D01*
X65842614Y-64985829D01*
X65999182Y-64607839D01*
X66079000Y-64206567D01*
X66079000Y-63797433D01*
X65999182Y-63396161D01*
X65842614Y-63018171D01*
X65615311Y-62677989D01*
X65326011Y-62388689D01*
X64985829Y-62161386D01*
X64607839Y-62004818D01*
X64206567Y-61925000D01*
X63797433Y-61925000D01*
X63396161Y-62004818D01*
X63018171Y-62161386D01*
X62677989Y-62388689D01*
X62388689Y-62677989D01*
X62161386Y-63018171D01*
X62004818Y-63396161D01*
X61925000Y-63797433D01*
X61467246Y-63797433D01*
X61422240Y-63571175D01*
X61310901Y-63302378D01*
X61149261Y-63060467D01*
X60943533Y-62854739D01*
X60701622Y-62693099D01*
X60432825Y-62581760D01*
X60147472Y-62525000D01*
X59856528Y-62525000D01*
X59571175Y-62581760D01*
X59302378Y-62693099D01*
X59060467Y-62854739D01*
X58854739Y-63060467D01*
X58693099Y-63302378D01*
X58581760Y-63571175D01*
X58525000Y-63856528D01*
X25479000Y-63856528D01*
X25422240Y-63571175D01*
X25310901Y-63302378D01*
X25149261Y-63060467D01*
X24943533Y-62854739D01*
X24701622Y-62693099D01*
X24432825Y-62581760D01*
X24147472Y-62525000D01*
X23856528Y-62525000D01*
X23571175Y-62581760D01*
X23302378Y-62693099D01*
X23060467Y-62854739D01*
X22854739Y-63060467D01*
X22693099Y-63302378D01*
X22581760Y-63571175D01*
X22525000Y-63856528D01*
X22079000Y-63856528D01*
X22079000Y-63797433D01*
X21999182Y-63396161D01*
X21842614Y-63018171D01*
X21615311Y-62677989D01*
X21326011Y-62388689D01*
X20985829Y-62161386D01*
X20607839Y-62004818D01*
X20206567Y-61925000D01*
X19797433Y-61925000D01*
X19396161Y-62004818D01*
X19018171Y-62161386D01*
X18677989Y-62388689D01*
X18388689Y-62677989D01*
X18161386Y-63018171D01*
X18004818Y-63396161D01*
X17925000Y-63797433D01*
X17168400Y-63797433D01*
X17168400Y-58339755D01*
X18373000Y-58339755D01*
X18373000Y-58660245D01*
X18435525Y-58974578D01*
X18558172Y-59270673D01*
X18736227Y-59537152D01*
X18962848Y-59763773D01*
X19229327Y-59941828D01*
X19525422Y-60064475D01*
X19839755Y-60127000D01*
X20160245Y-60127000D01*
X20474578Y-60064475D01*
X20770673Y-59941828D01*
X21037152Y-59763773D01*
X21263773Y-59537152D01*
X21441828Y-59270673D01*
X21564475Y-58974578D01*
X21627000Y-58660245D01*
X21627000Y-58339755D01*
X21564475Y-58025422D01*
X21441828Y-57729327D01*
X21263773Y-57462848D01*
X21037152Y-57236227D01*
X20770673Y-57058172D01*
X20474578Y-56935525D01*
X20160245Y-56873000D01*
X19839755Y-56873000D01*
X19525422Y-56935525D01*
X19229327Y-57058172D01*
X18962848Y-57236227D01*
X18736227Y-57462848D01*
X18558172Y-57729327D01*
X18435525Y-58025422D01*
X18373000Y-58339755D01*
X17168400Y-58339755D01*
X17168400Y-19797433D01*
X17925000Y-19797433D01*
X17925000Y-20206567D01*
X18004818Y-20607839D01*
X18161386Y-20985829D01*
X18388689Y-21326011D01*
X18677989Y-21615311D01*
X19018171Y-21842614D01*
X19396161Y-21999182D01*
X19797433Y-22079000D01*
X20206567Y-22079000D01*
X20607839Y-21999182D01*
X20985829Y-21842614D01*
X21326011Y-21615311D01*
X21615311Y-21326011D01*
X21842614Y-20985829D01*
X21999182Y-20607839D01*
X22079000Y-20206567D01*
X22079000Y-19856528D01*
X22525000Y-19856528D01*
X22525000Y-20147472D01*
X22581760Y-20432825D01*
X22693099Y-20701622D01*
X22854739Y-20943533D01*
X23060467Y-21149261D01*
X23302378Y-21310901D01*
X23571175Y-21422240D01*
X23856528Y-21479000D01*
X24147472Y-21479000D01*
X24432825Y-21422240D01*
X24701622Y-21310901D01*
X24943533Y-21149261D01*
X25149261Y-20943533D01*
X25310901Y-20701622D01*
X25422240Y-20432825D01*
X25479000Y-20147472D01*
X25479000Y-19856528D01*
X25422240Y-19571175D01*
X25310901Y-19302378D01*
X25149261Y-19060467D01*
X24943533Y-18854739D01*
X24701622Y-18693099D01*
X24432825Y-18581760D01*
X24147472Y-18525000D01*
X23856528Y-18525000D01*
X23571175Y-18581760D01*
X23302378Y-18693099D01*
X23060467Y-18854739D01*
X22854739Y-19060467D01*
X22693099Y-19302378D01*
X22581760Y-19571175D01*
X22525000Y-19856528D01*
X22079000Y-19856528D01*
X22079000Y-19797433D01*
X21999182Y-19396161D01*
X21842614Y-19018171D01*
X21615311Y-18677989D01*
X21326011Y-18388689D01*
X20985829Y-18161386D01*
X20607839Y-18004818D01*
X20206567Y-17925000D01*
X19797433Y-17925000D01*
X19396161Y-18004818D01*
X19018171Y-18161386D01*
X18677989Y-18388689D01*
X18388689Y-18677989D01*
X18161386Y-19018171D01*
X18004818Y-19396161D01*
X17925000Y-19797433D01*
X17168400Y-19797433D01*
X17168400Y-19070924D01*
X19070925Y-17168400D01*
X64933076Y-17168400D01*
X66835600Y-19070925D01*
%TA.AperFunction,Conductor*%
D23*
G36*
X66835600Y-19070925D02*
G01*
X66835600Y-31245492D01*
X66764591Y-31074062D01*
X66608424Y-30840340D01*
X66409660Y-30641576D01*
X66175938Y-30485409D01*
X65916241Y-30377838D01*
X65640547Y-30323000D01*
X65488701Y-30323000D01*
X65502812Y-30276482D01*
X65515072Y-30152000D01*
X65512000Y-29587750D01*
X65353250Y-29429000D01*
X63704000Y-29429000D01*
X63704000Y-29449000D01*
X63450000Y-29449000D01*
X63450000Y-29429000D01*
X63430000Y-29429000D01*
X63430000Y-29175000D01*
X63450000Y-29175000D01*
X63450000Y-26889000D01*
X63704000Y-26889000D01*
X63704000Y-29175000D01*
X65353250Y-29175000D01*
X65512000Y-29016250D01*
X65515072Y-28452000D01*
X65502812Y-28327518D01*
X65466502Y-28207820D01*
X65407537Y-28097506D01*
X65353778Y-28032000D01*
X65407537Y-27966494D01*
X65466502Y-27856180D01*
X65502812Y-27736482D01*
X65515072Y-27612000D01*
X65512000Y-27047750D01*
X65353250Y-26889000D01*
X63704000Y-26889000D01*
X63450000Y-26889000D01*
X63430000Y-26889000D01*
X63430000Y-26635000D01*
X63450000Y-26635000D01*
X63450000Y-24349000D01*
X63704000Y-24349000D01*
X63704000Y-26635000D01*
X65353250Y-26635000D01*
X65512000Y-26476250D01*
X65515072Y-25912000D01*
X65502812Y-25787518D01*
X65466502Y-25667820D01*
X65407537Y-25557506D01*
X65353778Y-25492000D01*
X65407537Y-25426494D01*
X65466502Y-25316180D01*
X65502812Y-25196482D01*
X65515072Y-25072000D01*
X65512000Y-24507750D01*
X65353250Y-24349000D01*
X63704000Y-24349000D01*
X63450000Y-24349000D01*
X63430000Y-24349000D01*
X63430000Y-24095000D01*
X63450000Y-24095000D01*
X63450000Y-22895750D01*
X63704000Y-22895750D01*
X63704000Y-24095000D01*
X65353250Y-24095000D01*
X65512000Y-23936250D01*
X65515072Y-23372000D01*
X65502812Y-23247518D01*
X65466502Y-23127820D01*
X65407537Y-23017506D01*
X65328185Y-22920815D01*
X65231494Y-22841463D01*
X65121180Y-22782498D01*
X65001482Y-22746188D01*
X64877000Y-22733928D01*
X63862750Y-22737000D01*
X63704000Y-22895750D01*
X63450000Y-22895750D01*
X63291250Y-22737000D01*
X62277011Y-22733928D01*
X62277011Y-22585716D01*
X62280528Y-22550010D01*
X62277011Y-22514303D01*
X62266491Y-22407494D01*
X62224921Y-22270454D01*
X62157414Y-22144158D01*
X62066564Y-22033457D01*
X62038827Y-22010694D01*
X61289313Y-21261181D01*
X61266542Y-21233434D01*
X61155841Y-21142585D01*
X61029545Y-21075078D01*
X61020469Y-21072325D01*
X61149261Y-20943533D01*
X61310901Y-20701622D01*
X61422240Y-20432825D01*
X61479000Y-20147472D01*
X61479000Y-19856528D01*
X61467246Y-19797433D01*
X61925000Y-19797433D01*
X61925000Y-20206567D01*
X62004818Y-20607839D01*
X62161386Y-20985829D01*
X62388689Y-21326011D01*
X62677989Y-21615311D01*
X63018171Y-21842614D01*
X63396161Y-21999182D01*
X63797433Y-22079000D01*
X64206567Y-22079000D01*
X64607839Y-21999182D01*
X64985829Y-21842614D01*
X65326011Y-21615311D01*
X65615311Y-21326011D01*
X65842614Y-20985829D01*
X65999182Y-20607839D01*
X66079000Y-20206567D01*
X66079000Y-19797433D01*
X65999182Y-19396161D01*
X65842614Y-19018171D01*
X65615311Y-18677989D01*
X65326011Y-18388689D01*
X64985829Y-18161386D01*
X64607839Y-18004818D01*
X64206567Y-17925000D01*
X63797433Y-17925000D01*
X63396161Y-18004818D01*
X63018171Y-18161386D01*
X62677989Y-18388689D01*
X62388689Y-18677989D01*
X62161386Y-19018171D01*
X62004818Y-19396161D01*
X61925000Y-19797433D01*
X61467246Y-19797433D01*
X61422240Y-19571175D01*
X61310901Y-19302378D01*
X61149261Y-19060467D01*
X60943533Y-18854739D01*
X60701622Y-18693099D01*
X60432825Y-18581760D01*
X60147472Y-18525000D01*
X59856528Y-18525000D01*
X59571175Y-18581760D01*
X59302378Y-18693099D01*
X59060467Y-18854739D01*
X58854739Y-19060467D01*
X58693099Y-19302378D01*
X58581760Y-19571175D01*
X58525000Y-19856528D01*
X58525000Y-20147472D01*
X58581760Y-20432825D01*
X58693099Y-20701622D01*
X58854739Y-20943533D01*
X58934194Y-21022988D01*
X55389286Y-21022988D01*
X55395741Y-20990536D01*
X55395741Y-20709442D01*
X55340903Y-20433748D01*
X55233332Y-20174051D01*
X55077165Y-19940329D01*
X54878401Y-19741565D01*
X54644679Y-19585398D01*
X54384982Y-19477827D01*
X54109288Y-19422989D01*
X53828194Y-19422989D01*
X53552500Y-19477827D01*
X53292803Y-19585398D01*
X53059081Y-19741565D01*
X52877657Y-19922989D01*
X43089010Y-19922989D01*
X43043483Y-19918505D01*
X42997956Y-19922989D01*
X42997945Y-19922989D01*
X42861759Y-19936402D01*
X42687019Y-19989409D01*
X42525978Y-20075487D01*
X42420195Y-20162301D01*
X42420191Y-20162305D01*
X42384824Y-20191330D01*
X42355799Y-20226697D01*
X35509497Y-27073000D01*
X34295527Y-27073000D01*
X34250000Y-27068516D01*
X34204473Y-27073000D01*
X34204462Y-27073000D01*
X34068276Y-27086413D01*
X33920169Y-27131341D01*
X33893536Y-27139420D01*
X33732494Y-27225498D01*
X33626712Y-27312312D01*
X33626708Y-27312316D01*
X33591341Y-27341341D01*
X33562316Y-27376708D01*
X32219191Y-28719834D01*
X32214570Y-28672916D01*
X32170210Y-28526678D01*
X32098172Y-28391905D01*
X32001225Y-28273775D01*
X31883095Y-28176828D01*
X31748322Y-28104790D01*
X31602084Y-28060430D01*
X31450002Y-28045451D01*
X31268927Y-28045451D01*
X30560192Y-27336717D01*
X30560188Y-27336712D01*
X29600188Y-26376713D01*
X29571159Y-26341341D01*
X29430005Y-26225499D01*
X29268964Y-26139420D01*
X29094224Y-26086413D01*
X28958038Y-26073000D01*
X28958027Y-26073000D01*
X28912500Y-26068516D01*
X28866973Y-26073000D01*
X26045527Y-26073000D01*
X26000000Y-26068516D01*
X25954473Y-26073000D01*
X25954462Y-26073000D01*
X25818276Y-26086413D01*
X25645870Y-26138712D01*
X25643536Y-26139420D01*
X25482494Y-26225498D01*
X25376712Y-26312312D01*
X25376708Y-26312316D01*
X25341341Y-26341341D01*
X25312316Y-26376708D01*
X24672114Y-27016910D01*
X24621993Y-26983420D01*
X24421442Y-26900349D01*
X24208538Y-26858000D01*
X23991462Y-26858000D01*
X23778558Y-26900349D01*
X23687105Y-26938230D01*
X23607650Y-26895761D01*
X23557855Y-26880656D01*
X23488659Y-26796340D01*
X23347505Y-26680498D01*
X23186464Y-26594419D01*
X23011724Y-26541412D01*
X22875538Y-26527999D01*
X22023525Y-26527999D01*
X21977998Y-26523515D01*
X21932471Y-26527999D01*
X21932461Y-26527999D01*
X21796275Y-26541412D01*
X21621535Y-26594419D01*
X21460494Y-26680498D01*
X21319340Y-26796340D01*
X21290311Y-26831712D01*
X21211523Y-26910500D01*
X21102548Y-26910500D01*
X20998322Y-26854790D01*
X20852084Y-26810430D01*
X20700002Y-26795451D01*
X19799998Y-26795451D01*
X19647916Y-26810430D01*
X19501678Y-26854790D01*
X19373281Y-26923420D01*
X19368276Y-26923913D01*
X19193536Y-26976920D01*
X19032494Y-27062999D01*
X18926712Y-27149812D01*
X18926708Y-27149816D01*
X18891341Y-27178841D01*
X18862316Y-27214208D01*
X18126703Y-27949822D01*
X18091331Y-27978851D01*
X18062303Y-28014222D01*
X18062302Y-28014223D01*
X17975489Y-28120005D01*
X17893297Y-28273775D01*
X17889410Y-28281047D01*
X17836403Y-28455787D01*
X17822990Y-28591973D01*
X17822990Y-28591983D01*
X17818506Y-28637510D01*
X17822990Y-28683037D01*
X17822991Y-34343595D01*
X17818506Y-34389132D01*
X17822991Y-34434669D01*
X17822991Y-34434670D01*
X17835702Y-34563723D01*
X17836404Y-34570855D01*
X17889410Y-34745595D01*
X17975489Y-34906637D01*
X18062302Y-35012419D01*
X18062307Y-35012424D01*
X18091332Y-35047791D01*
X18126699Y-35076816D01*
X32430143Y-49380260D01*
X32430143Y-52337000D01*
X35386883Y-52337000D01*
X40742311Y-57692428D01*
X40771340Y-57727800D01*
X40806711Y-57756828D01*
X40912493Y-57843642D01*
X40997724Y-57889199D01*
X41073535Y-57929721D01*
X41248275Y-57982728D01*
X41384461Y-57996141D01*
X41384473Y-57996141D01*
X41429998Y-58000625D01*
X41475523Y-57996141D01*
X53869154Y-57996141D01*
X54050578Y-58177565D01*
X54284300Y-58333732D01*
X54458501Y-58405889D01*
X54266535Y-58485405D01*
X54032813Y-58641572D01*
X53834049Y-58840336D01*
X53677882Y-59074058D01*
X53570311Y-59333755D01*
X53515473Y-59609449D01*
X53515473Y-59890543D01*
X53570311Y-60166237D01*
X53677882Y-60425934D01*
X53834049Y-60659656D01*
X54032813Y-60858420D01*
X54266535Y-61014587D01*
X54526232Y-61122158D01*
X54801926Y-61176996D01*
X55083020Y-61176996D01*
X55358714Y-61122158D01*
X55618411Y-61014587D01*
X55852133Y-60858420D01*
X56001553Y-60709000D01*
X56705035Y-60709000D01*
X56707626Y-60735310D01*
X56737761Y-60834650D01*
X56786696Y-60926202D01*
X56852552Y-61006448D01*
X56932798Y-61072304D01*
X57024350Y-61121239D01*
X57123690Y-61151374D01*
X57227000Y-61161549D01*
X59827000Y-61161549D01*
X59930310Y-61151374D01*
X60029650Y-61121239D01*
X60121202Y-61072304D01*
X60201448Y-61006448D01*
X60267304Y-60926202D01*
X60316239Y-60834650D01*
X60346374Y-60735310D01*
X60356549Y-60632000D01*
X60356549Y-59198235D01*
X60429199Y-59270885D01*
X60589217Y-59377806D01*
X60767020Y-59451454D01*
X60955774Y-59489000D01*
X61148226Y-59489000D01*
X61336980Y-59451454D01*
X61514783Y-59377806D01*
X61674801Y-59270885D01*
X61747451Y-59198235D01*
X61747451Y-60632000D01*
X61757626Y-60735310D01*
X61787761Y-60834650D01*
X61836696Y-60926202D01*
X61902552Y-61006448D01*
X61982798Y-61072304D01*
X62074350Y-61121239D01*
X62173690Y-61151374D01*
X62277000Y-61161549D01*
X64877000Y-61161549D01*
X64980310Y-61151374D01*
X65079650Y-61121239D01*
X65080471Y-61120800D01*
X65083759Y-61122162D01*
X65359453Y-61177000D01*
X65640547Y-61177000D01*
X65916241Y-61122162D01*
X66175938Y-61014591D01*
X66409660Y-60858424D01*
X66608424Y-60659660D01*
X66764591Y-60425938D01*
X66835601Y-60254507D01*
X66835601Y-64933074D01*
X64933076Y-66835600D01*
X19070925Y-66835600D01*
X17168400Y-64933076D01*
X17168400Y-63797433D01*
X17925000Y-63797433D01*
X17925000Y-64206567D01*
X18004818Y-64607839D01*
X18161386Y-64985829D01*
X18388689Y-65326011D01*
X18677989Y-65615311D01*
X19018171Y-65842614D01*
X19396161Y-65999182D01*
X19797433Y-66079000D01*
X20206567Y-66079000D01*
X20607839Y-65999182D01*
X20985829Y-65842614D01*
X21326011Y-65615311D01*
X21615311Y-65326011D01*
X21842614Y-64985829D01*
X21999182Y-64607839D01*
X22079000Y-64206567D01*
X22079000Y-63856528D01*
X22525000Y-63856528D01*
X22525000Y-64147472D01*
X22581760Y-64432825D01*
X22693099Y-64701622D01*
X22854739Y-64943533D01*
X23060467Y-65149261D01*
X23302378Y-65310901D01*
X23571175Y-65422240D01*
X23856528Y-65479000D01*
X24147472Y-65479000D01*
X24432825Y-65422240D01*
X24701622Y-65310901D01*
X24943533Y-65149261D01*
X25149261Y-64943533D01*
X25310901Y-64701622D01*
X25422240Y-64432825D01*
X25479000Y-64147472D01*
X25479000Y-63856528D01*
X58525000Y-63856528D01*
X58525000Y-64147472D01*
X58581760Y-64432825D01*
X58693099Y-64701622D01*
X58854739Y-64943533D01*
X59060467Y-65149261D01*
X59302378Y-65310901D01*
X59571175Y-65422240D01*
X59856528Y-65479000D01*
X60147472Y-65479000D01*
X60432825Y-65422240D01*
X60701622Y-65310901D01*
X60943533Y-65149261D01*
X61149261Y-64943533D01*
X61310901Y-64701622D01*
X61422240Y-64432825D01*
X61479000Y-64147472D01*
X61479000Y-63856528D01*
X61467246Y-63797433D01*
X61925000Y-63797433D01*
X61925000Y-64206567D01*
X62004818Y-64607839D01*
X62161386Y-64985829D01*
X62388689Y-65326011D01*
X62677989Y-65615311D01*
X63018171Y-65842614D01*
X63396161Y-65999182D01*
X63797433Y-66079000D01*
X64206567Y-66079000D01*
X64607839Y-65999182D01*
X64985829Y-65842614D01*
X65326011Y-65615311D01*
X65615311Y-65326011D01*
X65842614Y-64985829D01*
X65999182Y-64607839D01*
X66079000Y-64206567D01*
X66079000Y-63797433D01*
X65999182Y-63396161D01*
X65842614Y-63018171D01*
X65615311Y-62677989D01*
X65326011Y-62388689D01*
X64985829Y-62161386D01*
X64607839Y-62004818D01*
X64206567Y-61925000D01*
X63797433Y-61925000D01*
X63396161Y-62004818D01*
X63018171Y-62161386D01*
X62677989Y-62388689D01*
X62388689Y-62677989D01*
X62161386Y-63018171D01*
X62004818Y-63396161D01*
X61925000Y-63797433D01*
X61467246Y-63797433D01*
X61422240Y-63571175D01*
X61310901Y-63302378D01*
X61149261Y-63060467D01*
X60943533Y-62854739D01*
X60701622Y-62693099D01*
X60432825Y-62581760D01*
X60147472Y-62525000D01*
X59856528Y-62525000D01*
X59571175Y-62581760D01*
X59302378Y-62693099D01*
X59060467Y-62854739D01*
X58854739Y-63060467D01*
X58693099Y-63302378D01*
X58581760Y-63571175D01*
X58525000Y-63856528D01*
X25479000Y-63856528D01*
X25422240Y-63571175D01*
X25310901Y-63302378D01*
X25149261Y-63060467D01*
X24943533Y-62854739D01*
X24701622Y-62693099D01*
X24432825Y-62581760D01*
X24147472Y-62525000D01*
X23856528Y-62525000D01*
X23571175Y-62581760D01*
X23302378Y-62693099D01*
X23060467Y-62854739D01*
X22854739Y-63060467D01*
X22693099Y-63302378D01*
X22581760Y-63571175D01*
X22525000Y-63856528D01*
X22079000Y-63856528D01*
X22079000Y-63797433D01*
X21999182Y-63396161D01*
X21842614Y-63018171D01*
X21615311Y-62677989D01*
X21326011Y-62388689D01*
X20985829Y-62161386D01*
X20607839Y-62004818D01*
X20206567Y-61925000D01*
X19797433Y-61925000D01*
X19396161Y-62004818D01*
X19018171Y-62161386D01*
X18677989Y-62388689D01*
X18388689Y-62677989D01*
X18161386Y-63018171D01*
X18004818Y-63396161D01*
X17925000Y-63797433D01*
X17168400Y-63797433D01*
X17168400Y-58339755D01*
X18373000Y-58339755D01*
X18373000Y-58660245D01*
X18435525Y-58974578D01*
X18558172Y-59270673D01*
X18736227Y-59537152D01*
X18962848Y-59763773D01*
X19229327Y-59941828D01*
X19525422Y-60064475D01*
X19839755Y-60127000D01*
X20160245Y-60127000D01*
X20474578Y-60064475D01*
X20770673Y-59941828D01*
X21037152Y-59763773D01*
X21263773Y-59537152D01*
X21441828Y-59270673D01*
X21564475Y-58974578D01*
X21627000Y-58660245D01*
X21627000Y-58339755D01*
X21564475Y-58025422D01*
X21441828Y-57729327D01*
X21263773Y-57462848D01*
X21037152Y-57236227D01*
X20770673Y-57058172D01*
X20474578Y-56935525D01*
X20160245Y-56873000D01*
X19839755Y-56873000D01*
X19525422Y-56935525D01*
X19229327Y-57058172D01*
X18962848Y-57236227D01*
X18736227Y-57462848D01*
X18558172Y-57729327D01*
X18435525Y-58025422D01*
X18373000Y-58339755D01*
X17168400Y-58339755D01*
X17168400Y-19797433D01*
X17925000Y-19797433D01*
X17925000Y-20206567D01*
X18004818Y-20607839D01*
X18161386Y-20985829D01*
X18388689Y-21326011D01*
X18677989Y-21615311D01*
X19018171Y-21842614D01*
X19396161Y-21999182D01*
X19797433Y-22079000D01*
X20206567Y-22079000D01*
X20607839Y-21999182D01*
X20985829Y-21842614D01*
X21326011Y-21615311D01*
X21615311Y-21326011D01*
X21842614Y-20985829D01*
X21999182Y-20607839D01*
X22079000Y-20206567D01*
X22079000Y-19856528D01*
X22525000Y-19856528D01*
X22525000Y-20147472D01*
X22581760Y-20432825D01*
X22693099Y-20701622D01*
X22854739Y-20943533D01*
X23060467Y-21149261D01*
X23302378Y-21310901D01*
X23571175Y-21422240D01*
X23856528Y-21479000D01*
X24147472Y-21479000D01*
X24432825Y-21422240D01*
X24701622Y-21310901D01*
X24943533Y-21149261D01*
X25149261Y-20943533D01*
X25310901Y-20701622D01*
X25422240Y-20432825D01*
X25479000Y-20147472D01*
X25479000Y-19856528D01*
X25422240Y-19571175D01*
X25310901Y-19302378D01*
X25149261Y-19060467D01*
X24943533Y-18854739D01*
X24701622Y-18693099D01*
X24432825Y-18581760D01*
X24147472Y-18525000D01*
X23856528Y-18525000D01*
X23571175Y-18581760D01*
X23302378Y-18693099D01*
X23060467Y-18854739D01*
X22854739Y-19060467D01*
X22693099Y-19302378D01*
X22581760Y-19571175D01*
X22525000Y-19856528D01*
X22079000Y-19856528D01*
X22079000Y-19797433D01*
X21999182Y-19396161D01*
X21842614Y-19018171D01*
X21615311Y-18677989D01*
X21326011Y-18388689D01*
X20985829Y-18161386D01*
X20607839Y-18004818D01*
X20206567Y-17925000D01*
X19797433Y-17925000D01*
X19396161Y-18004818D01*
X19018171Y-18161386D01*
X18677989Y-18388689D01*
X18388689Y-18677989D01*
X18161386Y-19018171D01*
X18004818Y-19396161D01*
X17925000Y-19797433D01*
X17168400Y-19797433D01*
X17168400Y-19070924D01*
X19070925Y-17168400D01*
X64933076Y-17168400D01*
X66835600Y-19070925D01*
G37*
%TD.AperFunction*%
D22*
X29249212Y-28647688D02*
X29249217Y-28647692D01*
X29770451Y-29168926D01*
X29770451Y-29350002D01*
X29785430Y-29502084D01*
X29829790Y-29648322D01*
X29901828Y-29783095D01*
X29998775Y-29901225D01*
X30116905Y-29998172D01*
X30120325Y-30000000D01*
X30116905Y-30001828D01*
X29998775Y-30098775D01*
X29901828Y-30216905D01*
X29829790Y-30351678D01*
X29785430Y-30497916D01*
X29770451Y-30649998D01*
X29770451Y-30831073D01*
X27983524Y-32618001D01*
X25117999Y-32618001D01*
X25076580Y-32518007D01*
X25001071Y-32405000D01*
X25076580Y-32291993D01*
X25159651Y-32091442D01*
X25202000Y-31878538D01*
X25202000Y-31661462D01*
X25159651Y-31448558D01*
X25076580Y-31248007D01*
X25001071Y-31135000D01*
X25076580Y-31021993D01*
X25159651Y-30821442D01*
X25202000Y-30608538D01*
X25202000Y-30391462D01*
X25159651Y-30178558D01*
X25076580Y-29978007D01*
X25061553Y-29955518D01*
X25148158Y-29834550D01*
X25245960Y-29618448D01*
X25268635Y-29543677D01*
X25143550Y-29357000D01*
X24227000Y-29357000D01*
X24227000Y-29377000D01*
X23973000Y-29377000D01*
X23973000Y-29357000D01*
X22957000Y-29357000D01*
X22957000Y-29377000D01*
X22703000Y-29377000D01*
X22703000Y-29357000D01*
X21786450Y-29357000D01*
X21728082Y-29444109D01*
X21435258Y-29151285D01*
X21420210Y-29101678D01*
X21348172Y-28966905D01*
X21251225Y-28848775D01*
X21148536Y-28764500D01*
X21549971Y-28764500D01*
X21595498Y-28768984D01*
X21641025Y-28764500D01*
X21641036Y-28764500D01*
X21722545Y-28756472D01*
X21684040Y-28841552D01*
X21661365Y-28916323D01*
X21786450Y-29103000D01*
X22703000Y-29103000D01*
X22703000Y-29083000D01*
X22957000Y-29083000D01*
X22957000Y-29103000D01*
X23973000Y-29103000D01*
X23973000Y-29083000D01*
X24227000Y-29083000D01*
X24227000Y-29103000D01*
X25143550Y-29103000D01*
X25268635Y-28916323D01*
X25259621Y-28886598D01*
X25391723Y-28873587D01*
X25566463Y-28820580D01*
X25727504Y-28734501D01*
X25868659Y-28618659D01*
X25984501Y-28477505D01*
X26070580Y-28316464D01*
X26103703Y-28207272D01*
X26383976Y-27927000D01*
X28528525Y-27927000D01*
X29249212Y-28647688D01*
%TA.AperFunction,Conductor*%
D23*
G36*
X29249212Y-28647688D02*
G01*
X29249217Y-28647692D01*
X29770451Y-29168926D01*
X29770451Y-29350002D01*
X29785430Y-29502084D01*
X29829790Y-29648322D01*
X29901828Y-29783095D01*
X29998775Y-29901225D01*
X30116905Y-29998172D01*
X30120325Y-30000000D01*
X30116905Y-30001828D01*
X29998775Y-30098775D01*
X29901828Y-30216905D01*
X29829790Y-30351678D01*
X29785430Y-30497916D01*
X29770451Y-30649998D01*
X29770451Y-30831073D01*
X27983524Y-32618001D01*
X25117999Y-32618001D01*
X25076580Y-32518007D01*
X25001071Y-32405000D01*
X25076580Y-32291993D01*
X25159651Y-32091442D01*
X25202000Y-31878538D01*
X25202000Y-31661462D01*
X25159651Y-31448558D01*
X25076580Y-31248007D01*
X25001071Y-31135000D01*
X25076580Y-31021993D01*
X25159651Y-30821442D01*
X25202000Y-30608538D01*
X25202000Y-30391462D01*
X25159651Y-30178558D01*
X25076580Y-29978007D01*
X25061553Y-29955518D01*
X25148158Y-29834550D01*
X25245960Y-29618448D01*
X25268635Y-29543677D01*
X25143550Y-29357000D01*
X24227000Y-29357000D01*
X24227000Y-29377000D01*
X23973000Y-29377000D01*
X23973000Y-29357000D01*
X22957000Y-29357000D01*
X22957000Y-29377000D01*
X22703000Y-29377000D01*
X22703000Y-29357000D01*
X21786450Y-29357000D01*
X21728082Y-29444109D01*
X21435258Y-29151285D01*
X21420210Y-29101678D01*
X21348172Y-28966905D01*
X21251225Y-28848775D01*
X21148536Y-28764500D01*
X21549971Y-28764500D01*
X21595498Y-28768984D01*
X21641025Y-28764500D01*
X21641036Y-28764500D01*
X21722545Y-28756472D01*
X21684040Y-28841552D01*
X21661365Y-28916323D01*
X21786450Y-29103000D01*
X22703000Y-29103000D01*
X22703000Y-29083000D01*
X22957000Y-29083000D01*
X22957000Y-29103000D01*
X23973000Y-29103000D01*
X23973000Y-29083000D01*
X24227000Y-29083000D01*
X24227000Y-29103000D01*
X25143550Y-29103000D01*
X25268635Y-28916323D01*
X25259621Y-28886598D01*
X25391723Y-28873587D01*
X25566463Y-28820580D01*
X25727504Y-28734501D01*
X25868659Y-28618659D01*
X25984501Y-28477505D01*
X26070580Y-28316464D01*
X26103703Y-28207272D01*
X26383976Y-27927000D01*
X28528525Y-27927000D01*
X29249212Y-28647688D01*
G37*
%TD.AperFunction*%
%TD*%
M02*
