%TF.GenerationSoftware,KiCad,Pcbnew,(5.1.9)-1*%
%TF.CreationDate,2021-02-10T23:03:02-05:00*%
%TF.ProjectId,pmsa003-module,706d7361-3030-4332-9d6d-6f64756c652e,rev?*%
%TF.SameCoordinates,Original*%
%TF.FileFunction,Legend,Top*%
%TF.FilePolarity,Positive*%
%FSLAX46Y46*%
G04 Gerber Fmt 4.6, Leading zero omitted, Abs format (unit mm)*
G04 Created by KiCad (PCBNEW (5.1.9)-1) date 2021-02-10 23:03:02*
%MOMM*%
%LPD*%
G01*
G04 APERTURE LIST*
%ADD10C,0.150000*%
%ADD11C,0.120000*%
G04 APERTURE END LIST*
D10*
X26809523Y-19452380D02*
X26809523Y-18785714D01*
X26809523Y-18880952D02*
X26857142Y-18833333D01*
X26952380Y-18785714D01*
X27095238Y-18785714D01*
X27190476Y-18833333D01*
X27238095Y-18928571D01*
X27238095Y-19452380D01*
X27238095Y-18928571D02*
X27285714Y-18833333D01*
X27380952Y-18785714D01*
X27523809Y-18785714D01*
X27619047Y-18833333D01*
X27666666Y-18928571D01*
X27666666Y-19452380D01*
X28619047Y-18452380D02*
X28142857Y-18452380D01*
X28095238Y-18928571D01*
X28142857Y-18880952D01*
X28238095Y-18833333D01*
X28476190Y-18833333D01*
X28571428Y-18880952D01*
X28619047Y-18928571D01*
X28666666Y-19023809D01*
X28666666Y-19261904D01*
X28619047Y-19357142D01*
X28571428Y-19404761D01*
X28476190Y-19452380D01*
X28238095Y-19452380D01*
X28142857Y-19404761D01*
X28095238Y-19357142D01*
X29047619Y-19404761D02*
X29142857Y-19452380D01*
X29333333Y-19452380D01*
X29428571Y-19404761D01*
X29476190Y-19309523D01*
X29476190Y-19261904D01*
X29428571Y-19166666D01*
X29333333Y-19119047D01*
X29190476Y-19119047D01*
X29095238Y-19071428D01*
X29047619Y-18976190D01*
X29047619Y-18928571D01*
X29095238Y-18833333D01*
X29190476Y-18785714D01*
X29333333Y-18785714D01*
X29428571Y-18833333D01*
X29761904Y-18785714D02*
X30142857Y-18785714D01*
X29904761Y-18452380D02*
X29904761Y-19309523D01*
X29952380Y-19404761D01*
X30047619Y-19452380D01*
X30142857Y-19452380D01*
X30904761Y-19452380D02*
X30904761Y-18928571D01*
X30857142Y-18833333D01*
X30761904Y-18785714D01*
X30571428Y-18785714D01*
X30476190Y-18833333D01*
X30904761Y-19404761D02*
X30809523Y-19452380D01*
X30571428Y-19452380D01*
X30476190Y-19404761D01*
X30428571Y-19309523D01*
X30428571Y-19214285D01*
X30476190Y-19119047D01*
X30571428Y-19071428D01*
X30809523Y-19071428D01*
X30904761Y-19023809D01*
X31809523Y-19404761D02*
X31714285Y-19452380D01*
X31523809Y-19452380D01*
X31428571Y-19404761D01*
X31380952Y-19357142D01*
X31333333Y-19261904D01*
X31333333Y-18976190D01*
X31380952Y-18880952D01*
X31428571Y-18833333D01*
X31523809Y-18785714D01*
X31714285Y-18785714D01*
X31809523Y-18833333D01*
X32238095Y-19452380D02*
X32238095Y-18452380D01*
X32333333Y-19071428D02*
X32619047Y-19452380D01*
X32619047Y-18785714D02*
X32238095Y-19166666D01*
X33047619Y-19071428D02*
X33809523Y-19071428D01*
X34285714Y-18785714D02*
X34285714Y-19785714D01*
X34285714Y-18833333D02*
X34380952Y-18785714D01*
X34571428Y-18785714D01*
X34666666Y-18833333D01*
X34714285Y-18880952D01*
X34761904Y-18976190D01*
X34761904Y-19261904D01*
X34714285Y-19357142D01*
X34666666Y-19404761D01*
X34571428Y-19452380D01*
X34380952Y-19452380D01*
X34285714Y-19404761D01*
X35190476Y-19452380D02*
X35190476Y-18785714D01*
X35190476Y-18880952D02*
X35238095Y-18833333D01*
X35333333Y-18785714D01*
X35476190Y-18785714D01*
X35571428Y-18833333D01*
X35619047Y-18928571D01*
X35619047Y-19452380D01*
X35619047Y-18928571D02*
X35666666Y-18833333D01*
X35761904Y-18785714D01*
X35904761Y-18785714D01*
X36000000Y-18833333D01*
X36047619Y-18928571D01*
X36047619Y-19452380D01*
X36476190Y-19404761D02*
X36571428Y-19452380D01*
X36761904Y-19452380D01*
X36857142Y-19404761D01*
X36904761Y-19309523D01*
X36904761Y-19261904D01*
X36857142Y-19166666D01*
X36761904Y-19119047D01*
X36619047Y-19119047D01*
X36523809Y-19071428D01*
X36476190Y-18976190D01*
X36476190Y-18928571D01*
X36523809Y-18833333D01*
X36619047Y-18785714D01*
X36761904Y-18785714D01*
X36857142Y-18833333D01*
X37761904Y-19452380D02*
X37761904Y-18928571D01*
X37714285Y-18833333D01*
X37619047Y-18785714D01*
X37428571Y-18785714D01*
X37333333Y-18833333D01*
X37761904Y-19404761D02*
X37666666Y-19452380D01*
X37428571Y-19452380D01*
X37333333Y-19404761D01*
X37285714Y-19309523D01*
X37285714Y-19214285D01*
X37333333Y-19119047D01*
X37428571Y-19071428D01*
X37666666Y-19071428D01*
X37761904Y-19023809D01*
X38428571Y-18452380D02*
X38523809Y-18452380D01*
X38619047Y-18500000D01*
X38666666Y-18547619D01*
X38714285Y-18642857D01*
X38761904Y-18833333D01*
X38761904Y-19071428D01*
X38714285Y-19261904D01*
X38666666Y-19357142D01*
X38619047Y-19404761D01*
X38523809Y-19452380D01*
X38428571Y-19452380D01*
X38333333Y-19404761D01*
X38285714Y-19357142D01*
X38238095Y-19261904D01*
X38190476Y-19071428D01*
X38190476Y-18833333D01*
X38238095Y-18642857D01*
X38285714Y-18547619D01*
X38333333Y-18500000D01*
X38428571Y-18452380D01*
X39380952Y-18452380D02*
X39476190Y-18452380D01*
X39571428Y-18500000D01*
X39619047Y-18547619D01*
X39666666Y-18642857D01*
X39714285Y-18833333D01*
X39714285Y-19071428D01*
X39666666Y-19261904D01*
X39619047Y-19357142D01*
X39571428Y-19404761D01*
X39476190Y-19452380D01*
X39380952Y-19452380D01*
X39285714Y-19404761D01*
X39238095Y-19357142D01*
X39190476Y-19261904D01*
X39142857Y-19071428D01*
X39142857Y-18833333D01*
X39190476Y-18642857D01*
X39238095Y-18547619D01*
X39285714Y-18500000D01*
X39380952Y-18452380D01*
X40047619Y-18452380D02*
X40666666Y-18452380D01*
X40333333Y-18833333D01*
X40476190Y-18833333D01*
X40571428Y-18880952D01*
X40619047Y-18928571D01*
X40666666Y-19023809D01*
X40666666Y-19261904D01*
X40619047Y-19357142D01*
X40571428Y-19404761D01*
X40476190Y-19452380D01*
X40190476Y-19452380D01*
X40095238Y-19404761D01*
X40047619Y-19357142D01*
X41095238Y-19071428D02*
X41857142Y-19071428D01*
X42333333Y-19452380D02*
X42333333Y-18785714D01*
X42333333Y-18880952D02*
X42380952Y-18833333D01*
X42476190Y-18785714D01*
X42619047Y-18785714D01*
X42714285Y-18833333D01*
X42761904Y-18928571D01*
X42761904Y-19452380D01*
X42761904Y-18928571D02*
X42809523Y-18833333D01*
X42904761Y-18785714D01*
X43047619Y-18785714D01*
X43142857Y-18833333D01*
X43190476Y-18928571D01*
X43190476Y-19452380D01*
X43809523Y-19452380D02*
X43714285Y-19404761D01*
X43666666Y-19357142D01*
X43619047Y-19261904D01*
X43619047Y-18976190D01*
X43666666Y-18880952D01*
X43714285Y-18833333D01*
X43809523Y-18785714D01*
X43952380Y-18785714D01*
X44047619Y-18833333D01*
X44095238Y-18880952D01*
X44142857Y-18976190D01*
X44142857Y-19261904D01*
X44095238Y-19357142D01*
X44047619Y-19404761D01*
X43952380Y-19452380D01*
X43809523Y-19452380D01*
X45000000Y-19452380D02*
X45000000Y-18452380D01*
X45000000Y-19404761D02*
X44904761Y-19452380D01*
X44714285Y-19452380D01*
X44619047Y-19404761D01*
X44571428Y-19357142D01*
X44523809Y-19261904D01*
X44523809Y-18976190D01*
X44571428Y-18880952D01*
X44619047Y-18833333D01*
X44714285Y-18785714D01*
X44904761Y-18785714D01*
X45000000Y-18833333D01*
X45904761Y-18785714D02*
X45904761Y-19452380D01*
X45476190Y-18785714D02*
X45476190Y-19309523D01*
X45523809Y-19404761D01*
X45619047Y-19452380D01*
X45761904Y-19452380D01*
X45857142Y-19404761D01*
X45904761Y-19357142D01*
X46523809Y-19452380D02*
X46428571Y-19404761D01*
X46380952Y-19309523D01*
X46380952Y-18452380D01*
X47285714Y-19404761D02*
X47190476Y-19452380D01*
X46999999Y-19452380D01*
X46904761Y-19404761D01*
X46857142Y-19309523D01*
X46857142Y-18928571D01*
X46904761Y-18833333D01*
X46999999Y-18785714D01*
X47190476Y-18785714D01*
X47285714Y-18833333D01*
X47333333Y-18928571D01*
X47333333Y-19023809D01*
X46857142Y-19119047D01*
X48428571Y-18785714D02*
X48666666Y-19452380D01*
X48904761Y-18785714D01*
X49476190Y-18452380D02*
X49571428Y-18452380D01*
X49666666Y-18500000D01*
X49714285Y-18547619D01*
X49761904Y-18642857D01*
X49809523Y-18833333D01*
X49809523Y-19071428D01*
X49761904Y-19261904D01*
X49714285Y-19357142D01*
X49666666Y-19404761D01*
X49571428Y-19452380D01*
X49476190Y-19452380D01*
X49380952Y-19404761D01*
X49333333Y-19357142D01*
X49285714Y-19261904D01*
X49238095Y-19071428D01*
X49238095Y-18833333D01*
X49285714Y-18642857D01*
X49333333Y-18547619D01*
X49380952Y-18500000D01*
X49476190Y-18452380D01*
X50238095Y-19357142D02*
X50285714Y-19404761D01*
X50238095Y-19452380D01*
X50190476Y-19404761D01*
X50238095Y-19357142D01*
X50238095Y-19452380D01*
X51238095Y-19452380D02*
X50666666Y-19452380D01*
X50952380Y-19452380D02*
X50952380Y-18452380D01*
X50857142Y-18595238D01*
X50761904Y-18690476D01*
X50666666Y-18738095D01*
D11*
%TO.C,J1*%
X63652000Y-58002000D02*
X63652000Y-59022000D01*
X58452000Y-58002000D02*
X58452000Y-59022000D01*
X63652000Y-55462000D02*
X63652000Y-56482000D01*
X58452000Y-55462000D02*
X58452000Y-56482000D01*
X63652000Y-52922000D02*
X63652000Y-53942000D01*
X58452000Y-52922000D02*
X58452000Y-53942000D01*
X63652000Y-50382000D02*
X63652000Y-51402000D01*
X58452000Y-50382000D02*
X58452000Y-51402000D01*
X63652000Y-47842000D02*
X63652000Y-48862000D01*
X58452000Y-47842000D02*
X58452000Y-48862000D01*
X63652000Y-45302000D02*
X63652000Y-46322000D01*
X58452000Y-45302000D02*
X58452000Y-46322000D01*
X63652000Y-42762000D02*
X63652000Y-43782000D01*
X58452000Y-42762000D02*
X58452000Y-43782000D01*
X63652000Y-40222000D02*
X63652000Y-41242000D01*
X58452000Y-40222000D02*
X58452000Y-41242000D01*
X63652000Y-37682000D02*
X63652000Y-38702000D01*
X58452000Y-37682000D02*
X58452000Y-38702000D01*
X63652000Y-35142000D02*
X63652000Y-36162000D01*
X58452000Y-35142000D02*
X58452000Y-36162000D01*
X63652000Y-32602000D02*
X63652000Y-33622000D01*
X58452000Y-32602000D02*
X58452000Y-33622000D01*
X63652000Y-30062000D02*
X63652000Y-31082000D01*
X58452000Y-30062000D02*
X58452000Y-31082000D01*
X63652000Y-27522000D02*
X63652000Y-28542000D01*
X58452000Y-27522000D02*
X58452000Y-28542000D01*
X63652000Y-24982000D02*
X63652000Y-26002000D01*
X58452000Y-24982000D02*
X58452000Y-26002000D01*
X63652000Y-60542000D02*
X63652000Y-61112000D01*
X58452000Y-60542000D02*
X58452000Y-61112000D01*
X63652000Y-22892000D02*
X63652000Y-23462000D01*
X58452000Y-22892000D02*
X58452000Y-23462000D01*
X57012000Y-23462000D02*
X58452000Y-23462000D01*
X58452000Y-61112000D02*
X63652000Y-61112000D01*
X58452000Y-22892000D02*
X63652000Y-22892000D01*
%TO.C,R2*%
X31735000Y-29772936D02*
X31735000Y-30227064D01*
X30265000Y-29772936D02*
X30265000Y-30227064D01*
%TO.C,R1*%
X20985000Y-28522936D02*
X20985000Y-28977064D01*
X19515000Y-28522936D02*
X19515000Y-28977064D01*
%TO.C,J1*%
D10*
X60718666Y-21344380D02*
X60718666Y-22058666D01*
X60671047Y-22201523D01*
X60575809Y-22296761D01*
X60432952Y-22344380D01*
X60337714Y-22344380D01*
X61718666Y-22344380D02*
X61147238Y-22344380D01*
X61432952Y-22344380D02*
X61432952Y-21344380D01*
X61337714Y-21487238D01*
X61242476Y-21582476D01*
X61147238Y-21630095D01*
%TO.C,*%
%TO.C,R2*%
X33102380Y-30166666D02*
X32626190Y-30500000D01*
X33102380Y-30738095D02*
X32102380Y-30738095D01*
X32102380Y-30357142D01*
X32150000Y-30261904D01*
X32197619Y-30214285D01*
X32292857Y-30166666D01*
X32435714Y-30166666D01*
X32530952Y-30214285D01*
X32578571Y-30261904D01*
X32626190Y-30357142D01*
X32626190Y-30738095D01*
X32197619Y-29785714D02*
X32150000Y-29738095D01*
X32102380Y-29642857D01*
X32102380Y-29404761D01*
X32150000Y-29309523D01*
X32197619Y-29261904D01*
X32292857Y-29214285D01*
X32388095Y-29214285D01*
X32530952Y-29261904D01*
X33102380Y-29833333D01*
X33102380Y-29214285D01*
%TO.C,R1*%
X22352380Y-28916666D02*
X21876190Y-29250000D01*
X22352380Y-29488095D02*
X21352380Y-29488095D01*
X21352380Y-29107142D01*
X21400000Y-29011904D01*
X21447619Y-28964285D01*
X21542857Y-28916666D01*
X21685714Y-28916666D01*
X21780952Y-28964285D01*
X21828571Y-29011904D01*
X21876190Y-29107142D01*
X21876190Y-29488095D01*
X22352380Y-27964285D02*
X22352380Y-28535714D01*
X22352380Y-28250000D02*
X21352380Y-28250000D01*
X21495238Y-28345238D01*
X21590476Y-28440476D01*
X21638095Y-28535714D01*
%TD*%
M02*
